<?xml version="1.0" encoding="UTF-8"?>
<svg width="43.91px" height="46px" viewBox="0 0 43.91 46" version="1.1" xmlns="http://www.w3.org/2000/svg" xmlns:xlink="http://www.w3.org/1999/xlink">
    <title>logo@1.5x</title>
    <defs>
        <linearGradient x1="23.1593171%" y1="79.1406398%" x2="80.8492986%" y2="21.3325762%" id="linearGradient-1">
            <stop stop-color="#55A2FF" offset="0%"></stop>
            <stop stop-color="#4783F6" offset="14%"></stop>
            <stop stop-color="#2F4BE7" offset="43%"></stop>
            <stop stop-color="#1D22DD" offset="68%"></stop>
            <stop stop-color="#1309D6" offset="88%"></stop>
            <stop stop-color="#0F00D4" offset="100%"></stop>
        </linearGradient>
    </defs>
    <g id="页面-1" stroke="none" stroke-width="1" fill="none" fill-rule="evenodd">
        <g id="kosmos" transform="translate(-20.000000, -10.000000)">
            <g id="logo" transform="translate(20.000000, 10.000000)">
                <g id="KOSMOS_logo备份">
                    <rect id="矩形" x="0" y="0" width="46" height="46"></rect>
                    <path d="M22.9314638,1.10827182 C22.9370162,0.963909395 23.1507836,0.963909395 23.156336,1.10827182 C23.2590555,3.31257493 23.3589987,5.51410184 23.4617181,7.71840495 C27.353951,7.83500536 30.8797255,9.40355858 33.5198921,11.9104675 C34.2583614,11.2275222 34.9968307,10.5445769 35.7353,9.86163165 C35.9712771,9.64231182 36.3071973,9.97823207 36.0906537,10.2142091 C35.4104846,10.9554546 34.7303155,11.6939239 34.0501464,12.4351694 C34.7164345,13.1319957 35.31887,13.8926746 35.846348,14.7061013 C35.9546199,14.6866679 36.0628917,14.6727869 36.1739397,14.6727869 C37.2649864,14.6727869 38.1505944,15.5583949 38.1505944,16.6494416 C38.1505944,17.2324437 37.8924077,17.7515932 37.4926349,18.1124992 C37.9618127,19.4978232 38.2311042,20.9719856 38.2810758,22.501672 C40.4687217,22.5960628 42.6591438,22.6932299 44.8467897,22.7876207 C44.9911521,22.7931731 44.9911521,23.0069405 44.8467897,23.0124929 C42.66192,23.1096599 40.4798265,23.2068269 38.2949568,23.3039939 C38.2394328,26.0746419 37.4482157,28.7703325 35.9823819,31.1106694 C35.8657814,31.2966749 35.6686712,31.3966181 35.4660086,31.3966181 C35.3549606,31.3966181 35.2439126,31.3688561 35.1439693,31.3050035 C34.8607969,31.1273266 34.7747347,30.7497634 34.9524115,30.466591 C36.2877639,28.3344691 37.0151284,25.8830841 37.078981,23.359518 C36.0018153,23.4067134 34.9218733,23.456685 33.8419314,23.5038804 C33.7225547,26.0663133 32.7175702,28.3955455 31.1184788,30.1972995 C32.8563802,32.0851158 34.5970579,33.972932 36.3349593,35.8607483 C36.5348457,36.0772919 36.2266875,36.382674 36.0129201,36.1827876 C34.1334324,34.4393337 32.2567209,32.6986561 30.3772333,30.9552022 C28.5949126,32.6098177 26.2601281,33.6703262 23.6810379,33.8313458 C23.5033611,37.5181399 23.3284605,41.2049341 23.1507836,44.8917282 C23.1452312,45.0360906 22.9314638,45.0360906 22.9259114,44.8917282 C22.7510108,41.2077103 22.5788864,37.5236923 22.4067619,33.8368982 C19.816567,33.695312 17.4706776,32.6486845 15.6716998,30.9996214 C14.8777065,31.7325383 14.0864894,32.4682314 13.2924961,33.2011483 C14.0975942,33.9701558 14.9998593,34.6558773 15.9881866,35.2249984 C16.2796877,35.3915704 16.3796309,35.7635813 16.2130589,36.0550823 C16.1020109,36.2521926 15.896572,36.3604644 15.6855808,36.3604644 C15.5828614,36.3604644 15.4773658,36.3354786 15.382975,36.2799546 C14.2863758,35.6497571 13.2897199,34.886302 12.3985595,34.0284561 C11.9432627,34.4476623 11.4879658,34.8696448 11.0326689,35.2916272 C10.7578251,35.5470377 10.3663808,35.1555934 10.6190151,34.8807496 C11.0409975,34.4226765 11.4602038,33.9618272 11.8821863,33.5037542 C11.1381646,32.7125371 10.4802051,31.8491387 9.91941258,30.924664 C9.88887438,30.924664 9.85833617,30.9329926 9.82502177,30.9329926 C9.08932867,30.9329926 8.49522178,30.3361095 8.49522178,29.6031926 C8.49522178,29.2700486 8.6201508,28.9729951 8.82003723,28.7397943 C8.12321093,27.0241025 7.73731908,25.1779292 7.70122847,23.2790081 C5.51913496,23.1873935 3.33426525,23.0957789 1.15217175,23.0041643 C1.01058553,22.9986119 1.00780933,22.7876207 1.15217175,22.7792921 L1.15217175,22.7792921 L7.71233327,22.4628052 C7.75952868,21.1330052 7.96496751,19.8198625 8.34808316,18.5539151 C8.44525017,18.234652 8.77839422,18.0514228 9.10598587,18.1485898 C9.42802511,18.2457568 9.60847814,18.5844533 9.51131113,18.9064925 C9.16983848,20.0391823 8.98105685,21.213515 8.93108524,22.404505 L8.93108524,22.404505 L12.1653587,22.2490378 C12.3402593,19.717143 13.3813345,17.3934633 15.0387261,15.6083665 L15.0387261,15.6083665 L10.8189015,11.0665026 C10.5579387,10.7861064 10.9549353,10.3835573 11.2381078,10.641744 L11.2381078,10.641744 L15.8243908,14.8365827 C16.9126614,13.8815698 18.1980421,13.1319957 19.6416664,12.6628178 C19.9664818,12.5600984 20.3051782,12.7349991 20.4078977,13.0542621 C20.5106171,13.3735251 20.3357165,13.717774 20.0164534,13.8204934 C18.778268,14.2202663 17.6677879,14.85324 16.7238797,15.6611143 L16.7238797,15.6611143 L18.9226305,17.6710833 C19.8776434,16.9242854 21.0380951,16.4273456 22.3068187,16.2829832 C22.4067619,13.828822 22.5094814,11.3746609 22.6094246,8.92049972 C21.5655732,8.94826172 20.5272743,9.08429554 19.5250659,9.33970598 C19.2030267,9.42299199 18.8698826,9.22588176 18.7865966,8.90106631 C18.7033106,8.57625087 18.9004208,8.24588302 19.2252363,8.16259701 C20.3440451,7.87942457 21.4961682,7.72950975 22.6593962,7.70452394 L22.6593962,7.70452394 Z M18.7282964,28.1706732 C18.0064843,28.8369613 17.2874484,29.5060256 16.5656363,30.1723137 C18.1230847,31.5715187 20.1330538,32.4682314 22.3512379,32.6181463 C22.3068187,31.6492523 22.2596233,30.6775822 22.2152041,29.705912 C20.8965089,29.5365638 19.6971904,28.9868761 18.7282964,28.1706732 Z M27.4066988,28.2039876 C26.4267001,29.0201905 25.2107243,29.5615496 23.8781481,29.7170168 C23.8309527,30.6831346 23.7865335,31.6492523 23.7393381,32.6153701 L23.7393381,32.6153701 C25.9464174,32.448798 27.9425055,31.5354281 29.4860729,30.1306707 C28.7920228,29.4893684 28.1007489,28.8452899 27.4066988,28.2039876 Z M8.91998044,23.3345321 C8.96162345,25.0557764 9.3169771,26.7326014 9.94995079,28.2900498 C10.6245675,28.3539025 11.1548218,28.9146949 11.1548218,29.6059688 C11.1548218,29.8586031 11.0798643,30.0945801 10.9577115,30.2944665 C11.4574276,31.1217742 12.0459821,31.8963342 12.7067178,32.6070415 L12.7049385,32.606 L14.8971399,30.2167329 C13.3583317,28.4902007 12.3659502,26.277676 12.1789996,23.838163 L12.1570301,23.470566 C11.0798643,23.4261468 9.99992239,23.3789514 8.91998044,23.3345321 Z M13.3757821,23.5233138 L13.4025011,23.8874173 C13.5923428,25.9554453 14.4316636,27.8332106 15.7216714,29.317244 C16.3907357,28.5898795 17.0598,27.8597388 17.7288643,27.1295981 C16.9709616,26.1468231 16.4767979,24.953057 16.3518689,23.6482428 C15.3607653,23.6065998 14.3668856,23.5649568 13.3757821,23.5233138 L13.3757821,23.5233138 Z M32.6259556,23.5621806 C31.6875999,23.6038236 30.7520203,23.6454666 29.8136646,23.6871096 C29.680407,25.0141334 29.1584813,26.2301092 28.3700404,27.2184365 L28.3700404,27.2184365 L30.2939473,29.3061392 C31.6459568,27.7459146 32.4982504,25.7526027 32.6259556,23.5621806 Z M26.757068,19.5616758 L24.2834734,19.5616758 L20.4717503,23.8703388 L20.4717503,26.4327718 L22.2068755,26.4327718 L22.2068755,24.6671083 L26.757068,19.5616758 Z M24.2834734,23.5899426 L23.1174692,24.9475046 L24.3417736,26.4327718 L26.757068,26.4327718 L24.2834734,23.5899426 Z M22.1846659,19.5616758 L20.4384359,19.5616758 L20.4856313,22.5405388 L22.1846659,20.713799 L22.1846659,19.5616758 Z M33.2228387,13.3346583 C31.5821042,15.1225314 29.9385936,16.9076282 28.295083,18.6955013 C29.0918525,19.6560666 29.6221068,20.838728 29.7886788,22.1379898 C30.7270345,22.1796328 31.6653902,22.2184996 32.603746,22.2601426 C32.4982504,20.8775948 32.1123585,19.5255852 31.440518,18.317938 C31.2767222,18.0236608 31.3822178,17.6544261 31.676495,17.4906303 C31.9707723,17.3268345 32.3427831,17.4323301 32.5038028,17.7266074 C33.2866913,19.1313648 33.7225547,20.7054704 33.8252742,22.3128904 L33.8249385,22.31 L35.4420639,22.3809073 L35.4420639,22.3809073 L37.0623238,22.4517004 C37.009576,21.116348 36.7791514,19.8254149 36.3793785,18.6094391 C36.3099735,18.6177677 36.2433447,18.6316487 36.1711635,18.6316487 C35.0801167,18.6316487 34.1945088,17.7460408 34.1945088,16.654994 C34.1945088,16.1136349 34.4110524,15.6250237 34.7636299,15.2668938 C34.308333,14.5756199 33.7891835,13.9343176 33.2228387,13.3346583 Z M15.86881,16.4967506 C14.4612764,18.040318 13.5673399,20.0225251 13.3868869,22.1851852 L13.3868869,22.1851852 L16.3907357,22.0408228 C16.5711887,20.7720992 17.1042192,19.6144236 17.8871077,18.6732917 C17.212491,17.9487034 16.5406505,17.2241151 15.8660338,16.4995268 L15.8660338,16.4995268 Z M23.5200183,8.93160452 C23.6310663,11.3802133 23.7448905,13.8315982 23.8587147,16.280207 C25.1385431,16.4273456 26.3073235,16.9298378 27.2678888,17.6877406 C29.0557619,16.0386775 30.8408587,14.3868383 32.6259556,12.7349991 C30.2245422,10.4779481 27.0374642,9.05930974 23.5200183,8.93160452 Z" id="形状结合" fill="url(#linearGradient-1)" fill-rule="nonzero"></path>
                </g>
            </g>
        </g>
    </g>
</svg>