<?xml version="1.0" encoding="UTF-8"?>
<svg width="1366px" height="698px" viewBox="0 0 1366 698" version="1.1" xmlns="http://www.w3.org/2000/svg" xmlns:xlink="http://www.w3.org/1999/xlink">
    <title>背景@1.5x</title>
    <g id="页面-1" stroke="none" stroke-width="1" fill="none" fill-rule="evenodd">
        <g id="kosmos" transform="translate(0.000000, -70.000000)">
            <g id="背景" transform="translate(0.000000, 70.000000)">
                <rect id="矩形" fill="#F8F9FC" fill-rule="nonzero" x="0" y="0" width="1366" height="698"></rect>
                <path d="M178.164386,238.216887 C179.858273,238.216887 181.231439,239.590054 181.231439,241.28394 C181.231439,242.977827 179.858273,244.350993 178.164386,244.350993 C176.470499,244.350993 175.097333,242.977827 175.097333,241.28394 C175.097333,239.590054 176.470499,238.216887 178.164386,238.216887 Z M165.573326,238.216887 C167.267213,238.216887 168.640379,239.590054 168.640379,241.28394 C168.640379,242.977827 167.267213,244.350993 165.573326,244.350993 C163.87944,244.350993 162.506273,242.977827 162.506273,241.28394 C162.506273,239.590054 163.87944,238.216887 165.573326,238.216887 Z M152.982267,238.216887 C154.676153,238.216887 156.04932,239.590054 156.04932,241.28394 C156.04932,242.977827 154.676153,244.350993 152.982267,244.350993 C151.28838,244.350993 149.915214,242.977827 149.915214,241.28394 C149.915214,239.590054 151.28838,238.216887 152.982267,238.216887 Z M140.391207,238.216887 C142.085094,238.216887 143.45826,239.590054 143.45826,241.28394 C143.45826,242.977827 142.085094,244.350993 140.391207,244.350993 C138.697321,244.350993 137.324154,242.977827 137.324154,241.28394 C137.324154,239.590054 138.697321,238.216887 140.391207,238.216887 Z M127.800148,238.216887 C129.494034,238.216887 130.867201,239.590054 130.867201,241.28394 C130.867201,242.977827 129.494034,244.350993 127.800148,244.350993 C126.106261,244.350993 124.733095,242.977827 124.733095,241.28394 C124.733095,239.590054 126.106261,238.216887 127.800148,238.216887 Z M115.209088,238.216887 C116.902975,238.216887 118.276141,239.590054 118.276141,241.28394 C118.276141,242.977827 116.902975,244.350993 115.209088,244.350993 C113.515201,244.350993 112.142035,242.977827 112.142035,241.28394 C112.142035,239.590054 113.515201,238.216887 115.209088,238.216887 Z M102.618028,238.216887 C104.311915,238.216887 105.685081,239.590054 105.685081,241.28394 C105.685081,242.977827 104.311915,244.350993 102.618028,244.350993 C100.924142,244.350993 99.5509755,242.977827 99.5509755,241.28394 C99.5509755,239.590054 100.924142,238.216887 102.618028,238.216887 Z M90.0269689,238.216887 C91.7208554,238.216887 93.0940218,239.590054 93.0940218,241.28394 C93.0940218,242.977827 91.7208554,244.350993 90.0269689,244.350993 C88.3330823,244.350993 86.9599159,242.977827 86.9599159,241.28394 C86.9599159,239.590054 88.3330823,238.216887 90.0269689,238.216887 Z M77.4359093,238.216887 C79.1297958,238.216887 80.5029622,239.590054 80.5029622,241.28394 C80.5029622,242.977827 79.1297958,244.350993 77.4359093,244.350993 C75.7420227,244.350993 74.3688563,242.977827 74.3688563,241.28394 C74.3688563,239.590054 75.7420227,238.216887 77.4359093,238.216887 Z M64.8448497,238.216887 C66.5387362,238.216887 67.9119026,239.590054 67.9119026,241.28394 C67.9119026,242.977827 66.5387362,244.350993 64.8448497,244.350993 C63.1509631,244.350993 61.7777967,242.977827 61.7777967,241.28394 C61.7777967,239.590054 63.1509631,238.216887 64.8448497,238.216887 Z M52.25379,238.216887 C53.9476766,238.216887 55.320843,239.590054 55.320843,241.28394 C55.320843,242.977827 53.9476766,244.350993 52.25379,244.350993 C50.5599035,244.350993 49.1867371,242.977827 49.1867371,241.28394 C49.1867371,239.590054 50.5599035,238.216887 52.25379,238.216887 Z M39.6627304,238.216887 C41.356617,238.216887 42.7297834,239.590054 42.7297834,241.28394 C42.7297834,242.977827 41.356617,244.350993 39.6627304,244.350993 C37.9688439,244.350993 36.5956775,242.977827 36.5956775,241.28394 C36.5956775,239.590054 37.9688439,238.216887 39.6627304,238.216887 Z M27.0716708,238.216887 C28.7655574,238.216887 30.1387238,239.590054 30.1387238,241.28394 C30.1387238,242.977827 28.7655574,244.350993 27.0716708,244.350993 C25.3777843,244.350993 24.0046179,242.977827 24.0046179,241.28394 C24.0046179,239.590054 25.3777843,238.216887 27.0716708,238.216887 Z M178.164386,225.625828 C179.858273,225.625828 181.231439,226.998994 181.231439,228.692881 C181.231439,230.386767 179.858273,231.759934 178.164386,231.759934 C176.470499,231.759934 175.097333,230.386767 175.097333,228.692881 C175.097333,226.998994 176.470499,225.625828 178.164386,225.625828 Z M165.573326,225.625828 C167.267213,225.625828 168.640379,226.998994 168.640379,228.692881 C168.640379,230.386767 167.267213,231.759934 165.573326,231.759934 C163.87944,231.759934 162.506273,230.386767 162.506273,228.692881 C162.506273,226.998994 163.87944,225.625828 165.573326,225.625828 Z M152.982267,225.625828 C154.676153,225.625828 156.04932,226.998994 156.04932,228.692881 C156.04932,230.386767 154.676153,231.759934 152.982267,231.759934 C151.28838,231.759934 149.915214,230.386767 149.915214,228.692881 C149.915214,226.998994 151.28838,225.625828 152.982267,225.625828 Z M140.391207,225.625828 C142.085094,225.625828 143.45826,226.998994 143.45826,228.692881 C143.45826,230.386767 142.085094,231.759934 140.391207,231.759934 C138.697321,231.759934 137.324154,230.386767 137.324154,228.692881 C137.324154,226.998994 138.697321,225.625828 140.391207,225.625828 Z M127.800148,225.625828 C129.494034,225.625828 130.867201,226.998994 130.867201,228.692881 C130.867201,230.386767 129.494034,231.759934 127.800148,231.759934 C126.106261,231.759934 124.733095,230.386767 124.733095,228.692881 C124.733095,226.998994 126.106261,225.625828 127.800148,225.625828 Z M115.209088,225.625828 C116.902975,225.625828 118.276141,226.998994 118.276141,228.692881 C118.276141,230.386767 116.902975,231.759934 115.209088,231.759934 C113.515201,231.759934 112.142035,230.386767 112.142035,228.692881 C112.142035,226.998994 113.515201,225.625828 115.209088,225.625828 Z M102.618028,225.625828 C104.311915,225.625828 105.685081,226.998994 105.685081,228.692881 C105.685081,230.386767 104.311915,231.759934 102.618028,231.759934 C100.924142,231.759934 99.5509755,230.386767 99.5509755,228.692881 C99.5509755,226.998994 100.924142,225.625828 102.618028,225.625828 Z M90.0269689,225.625828 C91.7208554,225.625828 93.0940218,226.998994 93.0940218,228.692881 C93.0940218,230.386767 91.7208554,231.759934 90.0269689,231.759934 C88.3330823,231.759934 86.9599159,230.386767 86.9599159,228.692881 C86.9599159,226.998994 88.3330823,225.625828 90.0269689,225.625828 Z M77.4359093,225.625828 C79.1297958,225.625828 80.5029622,226.998994 80.5029622,228.692881 C80.5029622,230.386767 79.1297958,231.759934 77.4359093,231.759934 C75.7420227,231.759934 74.3688563,230.386767 74.3688563,228.692881 C74.3688563,226.998994 75.7420227,225.625828 77.4359093,225.625828 Z M64.8448497,225.625828 C66.5387362,225.625828 67.9119026,226.998994 67.9119026,228.692881 C67.9119026,230.386767 66.5387362,231.759934 64.8448497,231.759934 C63.1509631,231.759934 61.7777967,230.386767 61.7777967,228.692881 C61.7777967,226.998994 63.1509631,225.625828 64.8448497,225.625828 Z M52.25379,225.625828 C53.9476766,225.625828 55.320843,226.998994 55.320843,228.692881 C55.320843,230.386767 53.9476766,231.759934 52.25379,231.759934 C50.5599035,231.759934 49.1867371,230.386767 49.1867371,228.692881 C49.1867371,226.998994 50.5599035,225.625828 52.25379,225.625828 Z M39.6627304,225.625828 C41.356617,225.625828 42.7297834,226.998994 42.7297834,228.692881 C42.7297834,230.386767 41.356617,231.759934 39.6627304,231.759934 C37.9688439,231.759934 36.5956775,230.386767 36.5956775,228.692881 C36.5956775,226.998994 37.9688439,225.625828 39.6627304,225.625828 Z M27.0716708,225.625828 C28.7655574,225.625828 30.1387238,226.998994 30.1387238,228.692881 C30.1387238,230.386767 28.7655574,231.759934 27.0716708,231.759934 C25.3777843,231.759934 24.0046179,230.386767 24.0046179,228.692881 C24.0046179,226.998994 25.3777843,225.625828 27.0716708,225.625828 Z M178.164386,213.034768 C179.858273,213.034768 181.231439,214.407935 181.231439,216.101821 C181.231439,217.795708 179.858273,219.168874 178.164386,219.168874 C176.470499,219.168874 175.097333,217.795708 175.097333,216.101821 C175.097333,214.407935 176.470499,213.034768 178.164386,213.034768 Z M165.573326,213.034768 C167.267213,213.034768 168.640379,214.407935 168.640379,216.101821 C168.640379,217.795708 167.267213,219.168874 165.573326,219.168874 C163.87944,219.168874 162.506273,217.795708 162.506273,216.101821 C162.506273,214.407935 163.87944,213.034768 165.573326,213.034768 Z M152.982267,213.034768 C154.676153,213.034768 156.04932,214.407935 156.04932,216.101821 C156.04932,217.795708 154.676153,219.168874 152.982267,219.168874 C151.28838,219.168874 149.915214,217.795708 149.915214,216.101821 C149.915214,214.407935 151.28838,213.034768 152.982267,213.034768 Z M140.391207,213.034768 C142.085094,213.034768 143.45826,214.407935 143.45826,216.101821 C143.45826,217.795708 142.085094,219.168874 140.391207,219.168874 C138.697321,219.168874 137.324154,217.795708 137.324154,216.101821 C137.324154,214.407935 138.697321,213.034768 140.391207,213.034768 Z M127.800148,213.034768 C129.494034,213.034768 130.867201,214.407935 130.867201,216.101821 C130.867201,217.795708 129.494034,219.168874 127.800148,219.168874 C126.106261,219.168874 124.733095,217.795708 124.733095,216.101821 C124.733095,214.407935 126.106261,213.034768 127.800148,213.034768 Z M115.209088,213.034768 C116.902975,213.034768 118.276141,214.407935 118.276141,216.101821 C118.276141,217.795708 116.902975,219.168874 115.209088,219.168874 C113.515201,219.168874 112.142035,217.795708 112.142035,216.101821 C112.142035,214.407935 113.515201,213.034768 115.209088,213.034768 Z M102.618028,213.034768 C104.311915,213.034768 105.685081,214.407935 105.685081,216.101821 C105.685081,217.795708 104.311915,219.168874 102.618028,219.168874 C100.924142,219.168874 99.5509755,217.795708 99.5509755,216.101821 C99.5509755,214.407935 100.924142,213.034768 102.618028,213.034768 Z M90.0269689,213.034768 C91.7208554,213.034768 93.0940218,214.407935 93.0940218,216.101821 C93.0940218,217.795708 91.7208554,219.168874 90.0269689,219.168874 C88.3330823,219.168874 86.9599159,217.795708 86.9599159,216.101821 C86.9599159,214.407935 88.3330823,213.034768 90.0269689,213.034768 Z M77.4359093,213.034768 C79.1297958,213.034768 80.5029622,214.407935 80.5029622,216.101821 C80.5029622,217.795708 79.1297958,219.168874 77.4359093,219.168874 C75.7420227,219.168874 74.3688563,217.795708 74.3688563,216.101821 C74.3688563,214.407935 75.7420227,213.034768 77.4359093,213.034768 Z M64.8448497,213.034768 C66.5387362,213.034768 67.9119026,214.407935 67.9119026,216.101821 C67.9119026,217.795708 66.5387362,219.168874 64.8448497,219.168874 C63.1509631,219.168874 61.7777967,217.795708 61.7777967,216.101821 C61.7777967,214.407935 63.1509631,213.034768 64.8448497,213.034768 Z M52.25379,213.034768 C53.9476766,213.034768 55.320843,214.407935 55.320843,216.101821 C55.320843,217.795708 53.9476766,219.168874 52.25379,219.168874 C50.5599035,219.168874 49.1867371,217.795708 49.1867371,216.101821 C49.1867371,214.407935 50.5599035,213.034768 52.25379,213.034768 Z M39.6627304,213.034768 C41.356617,213.034768 42.7297834,214.407935 42.7297834,216.101821 C42.7297834,217.795708 41.356617,219.168874 39.6627304,219.168874 C37.9688439,219.168874 36.5956775,217.795708 36.5956775,216.101821 C36.5956775,214.407935 37.9688439,213.034768 39.6627304,213.034768 Z M27.0716708,213.034768 C28.7655574,213.034768 30.1387238,214.407935 30.1387238,216.101821 C30.1387238,217.795708 28.7655574,219.168874 27.0716708,219.168874 C25.3777843,219.168874 24.0046179,217.795708 24.0046179,216.101821 C24.0046179,214.407935 25.3777843,213.034768 27.0716708,213.034768 Z M178.164386,200.443709 C179.858273,200.443709 181.231439,201.816875 181.231439,203.510762 C181.231439,205.204648 179.858273,206.577815 178.164386,206.577815 C176.470499,206.577815 175.097333,205.204648 175.097333,203.510762 C175.097333,201.816875 176.470499,200.443709 178.164386,200.443709 Z M165.573326,200.443709 C167.267213,200.443709 168.640379,201.816875 168.640379,203.510762 C168.640379,205.204648 167.267213,206.577815 165.573326,206.577815 C163.87944,206.577815 162.506273,205.204648 162.506273,203.510762 C162.506273,201.816875 163.87944,200.443709 165.573326,200.443709 Z M152.982267,200.443709 C154.676153,200.443709 156.04932,201.816875 156.04932,203.510762 C156.04932,205.204648 154.676153,206.577815 152.982267,206.577815 C151.28838,206.577815 149.915214,205.204648 149.915214,203.510762 C149.915214,201.816875 151.28838,200.443709 152.982267,200.443709 Z M140.391207,200.443709 C142.085094,200.443709 143.45826,201.816875 143.45826,203.510762 C143.45826,205.204648 142.085094,206.577815 140.391207,206.577815 C138.697321,206.577815 137.324154,205.204648 137.324154,203.510762 C137.324154,201.816875 138.697321,200.443709 140.391207,200.443709 Z M127.800148,200.443709 C129.494034,200.443709 130.867201,201.816875 130.867201,203.510762 C130.867201,205.204648 129.494034,206.577815 127.800148,206.577815 C126.106261,206.577815 124.733095,205.204648 124.733095,203.510762 C124.733095,201.816875 126.106261,200.443709 127.800148,200.443709 Z M115.209088,200.443709 C116.902975,200.443709 118.276141,201.816875 118.276141,203.510762 C118.276141,205.204648 116.902975,206.577815 115.209088,206.577815 C113.515201,206.577815 112.142035,205.204648 112.142035,203.510762 C112.142035,201.816875 113.515201,200.443709 115.209088,200.443709 Z M102.618028,200.443709 C104.311915,200.443709 105.685081,201.816875 105.685081,203.510762 C105.685081,205.204648 104.311915,206.577815 102.618028,206.577815 C100.924142,206.577815 99.5509755,205.204648 99.5509755,203.510762 C99.5509755,201.816875 100.924142,200.443709 102.618028,200.443709 Z M90.0269689,200.443709 C91.7208554,200.443709 93.0940218,201.816875 93.0940218,203.510762 C93.0940218,205.204648 91.7208554,206.577815 90.0269689,206.577815 C88.3330823,206.577815 86.9599159,205.204648 86.9599159,203.510762 C86.9599159,201.816875 88.3330823,200.443709 90.0269689,200.443709 Z M77.4359093,200.443709 C79.1297958,200.443709 80.5029622,201.816875 80.5029622,203.510762 C80.5029622,205.204648 79.1297958,206.577815 77.4359093,206.577815 C75.7420227,206.577815 74.3688563,205.204648 74.3688563,203.510762 C74.3688563,201.816875 75.7420227,200.443709 77.4359093,200.443709 Z M64.8448497,200.443709 C66.5387362,200.443709 67.9119026,201.816875 67.9119026,203.510762 C67.9119026,205.204648 66.5387362,206.577815 64.8448497,206.577815 C63.1509631,206.577815 61.7777967,205.204648 61.7777967,203.510762 C61.7777967,201.816875 63.1509631,200.443709 64.8448497,200.443709 Z M52.25379,200.443709 C53.9476766,200.443709 55.320843,201.816875 55.320843,203.510762 C55.320843,205.204648 53.9476766,206.577815 52.25379,206.577815 C50.5599035,206.577815 49.1867371,205.204648 49.1867371,203.510762 C49.1867371,201.816875 50.5599035,200.443709 52.25379,200.443709 Z M39.6627304,200.443709 C41.356617,200.443709 42.7297834,201.816875 42.7297834,203.510762 C42.7297834,205.204648 41.356617,206.577815 39.6627304,206.577815 C37.9688439,206.577815 36.5956775,205.204648 36.5956775,203.510762 C36.5956775,201.816875 37.9688439,200.443709 39.6627304,200.443709 Z M27.0716708,200.443709 C28.7655574,200.443709 30.1387238,201.816875 30.1387238,203.510762 C30.1387238,205.204648 28.7655574,206.577815 27.0716708,206.577815 C25.3777843,206.577815 24.0046179,205.204648 24.0046179,203.510762 C24.0046179,201.816875 25.3777843,200.443709 27.0716708,200.443709 Z M178.164386,187.852649 C179.858273,187.852649 181.231439,189.225815 181.231439,190.919702 C181.231439,192.613589 179.858273,193.986755 178.164386,193.986755 C176.470499,193.986755 175.097333,192.613589 175.097333,190.919702 C175.097333,189.225815 176.470499,187.852649 178.164386,187.852649 Z M165.573326,187.852649 C167.267213,187.852649 168.640379,189.225815 168.640379,190.919702 C168.640379,192.613589 167.267213,193.986755 165.573326,193.986755 C163.87944,193.986755 162.506273,192.613589 162.506273,190.919702 C162.506273,189.225815 163.87944,187.852649 165.573326,187.852649 Z M152.982267,187.852649 C154.676153,187.852649 156.04932,189.225815 156.04932,190.919702 C156.04932,192.613589 154.676153,193.986755 152.982267,193.986755 C151.28838,193.986755 149.915214,192.613589 149.915214,190.919702 C149.915214,189.225815 151.28838,187.852649 152.982267,187.852649 Z M140.391207,187.852649 C142.085094,187.852649 143.45826,189.225815 143.45826,190.919702 C143.45826,192.613589 142.085094,193.986755 140.391207,193.986755 C138.697321,193.986755 137.324154,192.613589 137.324154,190.919702 C137.324154,189.225815 138.697321,187.852649 140.391207,187.852649 Z M127.800148,187.852649 C129.494034,187.852649 130.867201,189.225815 130.867201,190.919702 C130.867201,192.613589 129.494034,193.986755 127.800148,193.986755 C126.106261,193.986755 124.733095,192.613589 124.733095,190.919702 C124.733095,189.225815 126.106261,187.852649 127.800148,187.852649 Z M115.209088,187.852649 C116.902975,187.852649 118.276141,189.225815 118.276141,190.919702 C118.276141,192.613589 116.902975,193.986755 115.209088,193.986755 C113.515201,193.986755 112.142035,192.613589 112.142035,190.919702 C112.142035,189.225815 113.515201,187.852649 115.209088,187.852649 Z M102.618028,187.852649 C104.311915,187.852649 105.685081,189.225815 105.685081,190.919702 C105.685081,192.613589 104.311915,193.986755 102.618028,193.986755 C100.924142,193.986755 99.5509755,192.613589 99.5509755,190.919702 C99.5509755,189.225815 100.924142,187.852649 102.618028,187.852649 Z M90.0269689,187.852649 C91.7208554,187.852649 93.0940218,189.225815 93.0940218,190.919702 C93.0940218,192.613589 91.7208554,193.986755 90.0269689,193.986755 C88.3330823,193.986755 86.9599159,192.613589 86.9599159,190.919702 C86.9599159,189.225815 88.3330823,187.852649 90.0269689,187.852649 Z M77.4359093,187.852649 C79.1297958,187.852649 80.5029622,189.225815 80.5029622,190.919702 C80.5029622,192.613589 79.1297958,193.986755 77.4359093,193.986755 C75.7420227,193.986755 74.3688563,192.613589 74.3688563,190.919702 C74.3688563,189.225815 75.7420227,187.852649 77.4359093,187.852649 Z M64.8448497,187.852649 C66.5387362,187.852649 67.9119026,189.225815 67.9119026,190.919702 C67.9119026,192.613589 66.5387362,193.986755 64.8448497,193.986755 C63.1509631,193.986755 61.7777967,192.613589 61.7777967,190.919702 C61.7777967,189.225815 63.1509631,187.852649 64.8448497,187.852649 Z M52.25379,187.852649 C53.9476766,187.852649 55.320843,189.225815 55.320843,190.919702 C55.320843,192.613589 53.9476766,193.986755 52.25379,193.986755 C50.5599035,193.986755 49.1867371,192.613589 49.1867371,190.919702 C49.1867371,189.225815 50.5599035,187.852649 52.25379,187.852649 Z M39.6627304,187.852649 C41.356617,187.852649 42.7297834,189.225815 42.7297834,190.919702 C42.7297834,192.613589 41.356617,193.986755 39.6627304,193.986755 C37.9688439,193.986755 36.5956775,192.613589 36.5956775,190.919702 C36.5956775,189.225815 37.9688439,187.852649 39.6627304,187.852649 Z M27.0716708,187.852649 C28.7655574,187.852649 30.1387238,189.225815 30.1387238,190.919702 C30.1387238,192.613589 28.7655574,193.986755 27.0716708,193.986755 C25.3777843,193.986755 24.0046179,192.613589 24.0046179,190.919702 C24.0046179,189.225815 25.3777843,187.852649 27.0716708,187.852649 Z M178.164386,175.261589 C179.858273,175.261589 181.231439,176.634756 181.231439,178.328642 C181.231439,180.022529 179.858273,181.395695 178.164386,181.395695 C176.470499,181.395695 175.097333,180.022529 175.097333,178.328642 C175.097333,176.634756 176.470499,175.261589 178.164386,175.261589 Z M165.573326,175.261589 C167.267213,175.261589 168.640379,176.634756 168.640379,178.328642 C168.640379,180.022529 167.267213,181.395695 165.573326,181.395695 C163.87944,181.395695 162.506273,180.022529 162.506273,178.328642 C162.506273,176.634756 163.87944,175.261589 165.573326,175.261589 Z M152.982267,175.261589 C154.676153,175.261589 156.04932,176.634756 156.04932,178.328642 C156.04932,180.022529 154.676153,181.395695 152.982267,181.395695 C151.28838,181.395695 149.915214,180.022529 149.915214,178.328642 C149.915214,176.634756 151.28838,175.261589 152.982267,175.261589 Z M140.391207,175.261589 C142.085094,175.261589 143.45826,176.634756 143.45826,178.328642 C143.45826,180.022529 142.085094,181.395695 140.391207,181.395695 C138.697321,181.395695 137.324154,180.022529 137.324154,178.328642 C137.324154,176.634756 138.697321,175.261589 140.391207,175.261589 Z M127.800148,175.261589 C129.494034,175.261589 130.867201,176.634756 130.867201,178.328642 C130.867201,180.022529 129.494034,181.395695 127.800148,181.395695 C126.106261,181.395695 124.733095,180.022529 124.733095,178.328642 C124.733095,176.634756 126.106261,175.261589 127.800148,175.261589 Z M115.209088,175.261589 C116.902975,175.261589 118.276141,176.634756 118.276141,178.328642 C118.276141,180.022529 116.902975,181.395695 115.209088,181.395695 C113.515201,181.395695 112.142035,180.022529 112.142035,178.328642 C112.142035,176.634756 113.515201,175.261589 115.209088,175.261589 Z M102.618028,175.261589 C104.311915,175.261589 105.685081,176.634756 105.685081,178.328642 C105.685081,180.022529 104.311915,181.395695 102.618028,181.395695 C100.924142,181.395695 99.5509755,180.022529 99.5509755,178.328642 C99.5509755,176.634756 100.924142,175.261589 102.618028,175.261589 Z M90.0269689,175.261589 C91.7208554,175.261589 93.0940218,176.634756 93.0940218,178.328642 C93.0940218,180.022529 91.7208554,181.395695 90.0269689,181.395695 C88.3330823,181.395695 86.9599159,180.022529 86.9599159,178.328642 C86.9599159,176.634756 88.3330823,175.261589 90.0269689,175.261589 Z M77.4359093,175.261589 C79.1297958,175.261589 80.5029622,176.634756 80.5029622,178.328642 C80.5029622,180.022529 79.1297958,181.395695 77.4359093,181.395695 C75.7420227,181.395695 74.3688563,180.022529 74.3688563,178.328642 C74.3688563,176.634756 75.7420227,175.261589 77.4359093,175.261589 Z M64.8448497,175.261589 C66.5387362,175.261589 67.9119026,176.634756 67.9119026,178.328642 C67.9119026,180.022529 66.5387362,181.395695 64.8448497,181.395695 C63.1509631,181.395695 61.7777967,180.022529 61.7777967,178.328642 C61.7777967,176.634756 63.1509631,175.261589 64.8448497,175.261589 Z M52.25379,175.261589 C53.9476766,175.261589 55.320843,176.634756 55.320843,178.328642 C55.320843,180.022529 53.9476766,181.395695 52.25379,181.395695 C50.5599035,181.395695 49.1867371,180.022529 49.1867371,178.328642 C49.1867371,176.634756 50.5599035,175.261589 52.25379,175.261589 Z M39.6627304,175.261589 C41.356617,175.261589 42.7297834,176.634756 42.7297834,178.328642 C42.7297834,180.022529 41.356617,181.395695 39.6627304,181.395695 C37.9688439,181.395695 36.5956775,180.022529 36.5956775,178.328642 C36.5956775,176.634756 37.9688439,175.261589 39.6627304,175.261589 Z M27.0716708,175.261589 C28.7655574,175.261589 30.1387238,176.634756 30.1387238,178.328642 C30.1387238,180.022529 28.7655574,181.395695 27.0716708,181.395695 C25.3777843,181.395695 24.0046179,180.022529 24.0046179,178.328642 C24.0046179,176.634756 25.3777843,175.261589 27.0716708,175.261589 Z M178.164386,162.67053 C179.858273,162.67053 181.231439,164.043696 181.231439,165.737583 C181.231439,167.431469 179.858273,168.804636 178.164386,168.804636 C176.470499,168.804636 175.097333,167.431469 175.097333,165.737583 C175.097333,164.043696 176.470499,162.67053 178.164386,162.67053 Z M165.573326,162.67053 C167.267213,162.67053 168.640379,164.043696 168.640379,165.737583 C168.640379,167.431469 167.267213,168.804636 165.573326,168.804636 C163.87944,168.804636 162.506273,167.431469 162.506273,165.737583 C162.506273,164.043696 163.87944,162.67053 165.573326,162.67053 Z M152.982267,162.67053 C154.676153,162.67053 156.04932,164.043696 156.04932,165.737583 C156.04932,167.431469 154.676153,168.804636 152.982267,168.804636 C151.28838,168.804636 149.915214,167.431469 149.915214,165.737583 C149.915214,164.043696 151.28838,162.67053 152.982267,162.67053 Z M140.391207,162.67053 C142.085094,162.67053 143.45826,164.043696 143.45826,165.737583 C143.45826,167.431469 142.085094,168.804636 140.391207,168.804636 C138.697321,168.804636 137.324154,167.431469 137.324154,165.737583 C137.324154,164.043696 138.697321,162.67053 140.391207,162.67053 Z M127.800148,162.67053 C129.494034,162.67053 130.867201,164.043696 130.867201,165.737583 C130.867201,167.431469 129.494034,168.804636 127.800148,168.804636 C126.106261,168.804636 124.733095,167.431469 124.733095,165.737583 C124.733095,164.043696 126.106261,162.67053 127.800148,162.67053 Z M115.209088,162.67053 C116.902975,162.67053 118.276141,164.043696 118.276141,165.737583 C118.276141,167.431469 116.902975,168.804636 115.209088,168.804636 C113.515201,168.804636 112.142035,167.431469 112.142035,165.737583 C112.142035,164.043696 113.515201,162.67053 115.209088,162.67053 Z M102.618028,162.67053 C104.311915,162.67053 105.685081,164.043696 105.685081,165.737583 C105.685081,167.431469 104.311915,168.804636 102.618028,168.804636 C100.924142,168.804636 99.5509755,167.431469 99.5509755,165.737583 C99.5509755,164.043696 100.924142,162.67053 102.618028,162.67053 Z M90.0269689,162.67053 C91.7208554,162.67053 93.0940218,164.043696 93.0940218,165.737583 C93.0940218,167.431469 91.7208554,168.804636 90.0269689,168.804636 C88.3330823,168.804636 86.9599159,167.431469 86.9599159,165.737583 C86.9599159,164.043696 88.3330823,162.67053 90.0269689,162.67053 Z M77.4359093,162.67053 C79.1297958,162.67053 80.5029622,164.043696 80.5029622,165.737583 C80.5029622,167.431469 79.1297958,168.804636 77.4359093,168.804636 C75.7420227,168.804636 74.3688563,167.431469 74.3688563,165.737583 C74.3688563,164.043696 75.7420227,162.67053 77.4359093,162.67053 Z M64.8448497,162.67053 C66.5387362,162.67053 67.9119026,164.043696 67.9119026,165.737583 C67.9119026,167.431469 66.5387362,168.804636 64.8448497,168.804636 C63.1509631,168.804636 61.7777967,167.431469 61.7777967,165.737583 C61.7777967,164.043696 63.1509631,162.67053 64.8448497,162.67053 Z M52.25379,162.67053 C53.9476766,162.67053 55.320843,164.043696 55.320843,165.737583 C55.320843,167.431469 53.9476766,168.804636 52.25379,168.804636 C50.5599035,168.804636 49.1867371,167.431469 49.1867371,165.737583 C49.1867371,164.043696 50.5599035,162.67053 52.25379,162.67053 Z M39.6627304,162.67053 C41.356617,162.67053 42.7297834,164.043696 42.7297834,165.737583 C42.7297834,167.431469 41.356617,168.804636 39.6627304,168.804636 C37.9688439,168.804636 36.5956775,167.431469 36.5956775,165.737583 C36.5956775,164.043696 37.9688439,162.67053 39.6627304,162.67053 Z M27.0716708,162.67053 C28.7655574,162.67053 30.1387238,164.043696 30.1387238,165.737583 C30.1387238,167.431469 28.7655574,168.804636 27.0716708,168.804636 C25.3777843,168.804636 24.0046179,167.431469 24.0046179,165.737583 C24.0046179,164.043696 25.3777843,162.67053 27.0716708,162.67053 Z M178.164386,150.07947 C179.858273,150.07947 181.231439,151.452637 181.231439,153.146523 C181.231439,154.84041 179.858273,156.213576 178.164386,156.213576 C176.470499,156.213576 175.097333,154.84041 175.097333,153.146523 C175.097333,151.452637 176.470499,150.07947 178.164386,150.07947 Z M165.573326,150.07947 C167.267213,150.07947 168.640379,151.452637 168.640379,153.146523 C168.640379,154.84041 167.267213,156.213576 165.573326,156.213576 C163.87944,156.213576 162.506273,154.84041 162.506273,153.146523 C162.506273,151.452637 163.87944,150.07947 165.573326,150.07947 Z M152.982267,150.07947 C154.676153,150.07947 156.04932,151.452637 156.04932,153.146523 C156.04932,154.84041 154.676153,156.213576 152.982267,156.213576 C151.28838,156.213576 149.915214,154.84041 149.915214,153.146523 C149.915214,151.452637 151.28838,150.07947 152.982267,150.07947 Z M140.391207,150.07947 C142.085094,150.07947 143.45826,151.452637 143.45826,153.146523 C143.45826,154.84041 142.085094,156.213576 140.391207,156.213576 C138.697321,156.213576 137.324154,154.84041 137.324154,153.146523 C137.324154,151.452637 138.697321,150.07947 140.391207,150.07947 Z M127.800148,150.07947 C129.494034,150.07947 130.867201,151.452637 130.867201,153.146523 C130.867201,154.84041 129.494034,156.213576 127.800148,156.213576 C126.106261,156.213576 124.733095,154.84041 124.733095,153.146523 C124.733095,151.452637 126.106261,150.07947 127.800148,150.07947 Z M115.209088,150.07947 C116.902975,150.07947 118.276141,151.452637 118.276141,153.146523 C118.276141,154.84041 116.902975,156.213576 115.209088,156.213576 C113.515201,156.213576 112.142035,154.84041 112.142035,153.146523 C112.142035,151.452637 113.515201,150.07947 115.209088,150.07947 Z M102.618028,150.07947 C104.311915,150.07947 105.685081,151.452637 105.685081,153.146523 C105.685081,154.84041 104.311915,156.213576 102.618028,156.213576 C100.924142,156.213576 99.5509755,154.84041 99.5509755,153.146523 C99.5509755,151.452637 100.924142,150.07947 102.618028,150.07947 Z M90.0269689,150.07947 C91.7208554,150.07947 93.0940218,151.452637 93.0940218,153.146523 C93.0940218,154.84041 91.7208554,156.213576 90.0269689,156.213576 C88.3330823,156.213576 86.9599159,154.84041 86.9599159,153.146523 C86.9599159,151.452637 88.3330823,150.07947 90.0269689,150.07947 Z M77.4359093,150.07947 C79.1297958,150.07947 80.5029622,151.452637 80.5029622,153.146523 C80.5029622,154.84041 79.1297958,156.213576 77.4359093,156.213576 C75.7420227,156.213576 74.3688563,154.84041 74.3688563,153.146523 C74.3688563,151.452637 75.7420227,150.07947 77.4359093,150.07947 Z M64.8448497,150.07947 C66.5387362,150.07947 67.9119026,151.452637 67.9119026,153.146523 C67.9119026,154.84041 66.5387362,156.213576 64.8448497,156.213576 C63.1509631,156.213576 61.7777967,154.84041 61.7777967,153.146523 C61.7777967,151.452637 63.1509631,150.07947 64.8448497,150.07947 Z M52.25379,150.07947 C53.9476766,150.07947 55.320843,151.452637 55.320843,153.146523 C55.320843,154.84041 53.9476766,156.213576 52.25379,156.213576 C50.5599035,156.213576 49.1867371,154.84041 49.1867371,153.146523 C49.1867371,151.452637 50.5599035,150.07947 52.25379,150.07947 Z M39.6627304,150.07947 C41.356617,150.07947 42.7297834,151.452637 42.7297834,153.146523 C42.7297834,154.84041 41.356617,156.213576 39.6627304,156.213576 C37.9688439,156.213576 36.5956775,154.84041 36.5956775,153.146523 C36.5956775,151.452637 37.9688439,150.07947 39.6627304,150.07947 Z M27.0716708,150.07947 C28.7655574,150.07947 30.1387238,151.452637 30.1387238,153.146523 C30.1387238,154.84041 28.7655574,156.213576 27.0716708,156.213576 C25.3777843,156.213576 24.0046179,154.84041 24.0046179,153.146523 C24.0046179,151.452637 25.3777843,150.07947 27.0716708,150.07947 Z M178.164386,137.488411 C179.858273,137.488411 181.231439,138.861577 181.231439,140.555464 C181.231439,142.24935 179.858273,143.622517 178.164386,143.622517 C176.470499,143.622517 175.097333,142.24935 175.097333,140.555464 C175.097333,138.861577 176.470499,137.488411 178.164386,137.488411 Z M165.573326,137.488411 C167.267213,137.488411 168.640379,138.861577 168.640379,140.555464 C168.640379,142.24935 167.267213,143.622517 165.573326,143.622517 C163.87944,143.622517 162.506273,142.24935 162.506273,140.555464 C162.506273,138.861577 163.87944,137.488411 165.573326,137.488411 Z M152.982267,137.488411 C154.676153,137.488411 156.04932,138.861577 156.04932,140.555464 C156.04932,142.24935 154.676153,143.622517 152.982267,143.622517 C151.28838,143.622517 149.915214,142.24935 149.915214,140.555464 C149.915214,138.861577 151.28838,137.488411 152.982267,137.488411 Z M140.391207,137.488411 C142.085094,137.488411 143.45826,138.861577 143.45826,140.555464 C143.45826,142.24935 142.085094,143.622517 140.391207,143.622517 C138.697321,143.622517 137.324154,142.24935 137.324154,140.555464 C137.324154,138.861577 138.697321,137.488411 140.391207,137.488411 Z M127.800148,137.488411 C129.494034,137.488411 130.867201,138.861577 130.867201,140.555464 C130.867201,142.24935 129.494034,143.622517 127.800148,143.622517 C126.106261,143.622517 124.733095,142.24935 124.733095,140.555464 C124.733095,138.861577 126.106261,137.488411 127.800148,137.488411 Z M115.209088,137.488411 C116.902975,137.488411 118.276141,138.861577 118.276141,140.555464 C118.276141,142.24935 116.902975,143.622517 115.209088,143.622517 C113.515201,143.622517 112.142035,142.24935 112.142035,140.555464 C112.142035,138.861577 113.515201,137.488411 115.209088,137.488411 Z M102.618028,137.488411 C104.311915,137.488411 105.685081,138.861577 105.685081,140.555464 C105.685081,142.24935 104.311915,143.622517 102.618028,143.622517 C100.924142,143.622517 99.5509755,142.24935 99.5509755,140.555464 C99.5509755,138.861577 100.924142,137.488411 102.618028,137.488411 Z M90.0269689,137.488411 C91.7208554,137.488411 93.0940218,138.861577 93.0940218,140.555464 C93.0940218,142.24935 91.7208554,143.622517 90.0269689,143.622517 C88.3330823,143.622517 86.9599159,142.24935 86.9599159,140.555464 C86.9599159,138.861577 88.3330823,137.488411 90.0269689,137.488411 Z M77.4359093,137.488411 C79.1297958,137.488411 80.5029622,138.861577 80.5029622,140.555464 C80.5029622,142.24935 79.1297958,143.622517 77.4359093,143.622517 C75.7420227,143.622517 74.3688563,142.24935 74.3688563,140.555464 C74.3688563,138.861577 75.7420227,137.488411 77.4359093,137.488411 Z M64.8448497,137.488411 C66.5387362,137.488411 67.9119026,138.861577 67.9119026,140.555464 C67.9119026,142.24935 66.5387362,143.622517 64.8448497,143.622517 C63.1509631,143.622517 61.7777967,142.24935 61.7777967,140.555464 C61.7777967,138.861577 63.1509631,137.488411 64.8448497,137.488411 Z M52.25379,137.488411 C53.9476766,137.488411 55.320843,138.861577 55.320843,140.555464 C55.320843,142.24935 53.9476766,143.622517 52.25379,143.622517 C50.5599035,143.622517 49.1867371,142.24935 49.1867371,140.555464 C49.1867371,138.861577 50.5599035,137.488411 52.25379,137.488411 Z M39.6627304,137.488411 C41.356617,137.488411 42.7297834,138.861577 42.7297834,140.555464 C42.7297834,142.24935 41.356617,143.622517 39.6627304,143.622517 C37.9688439,143.622517 36.5956775,142.24935 36.5956775,140.555464 C36.5956775,138.861577 37.9688439,137.488411 39.6627304,137.488411 Z M27.0716708,137.488411 C28.7655574,137.488411 30.1387238,138.861577 30.1387238,140.555464 C30.1387238,142.24935 28.7655574,143.622517 27.0716708,143.622517 C25.3777843,143.622517 24.0046179,142.24935 24.0046179,140.555464 C24.0046179,138.861577 25.3777843,137.488411 27.0716708,137.488411 Z M178.164386,124.897351 C179.858273,124.897351 181.231439,126.270517 181.231439,127.964404 C181.231439,129.658291 179.858273,131.031457 178.164386,131.031457 C176.470499,131.031457 175.097333,129.658291 175.097333,127.964404 C175.097333,126.270517 176.470499,124.897351 178.164386,124.897351 Z M165.573326,124.897351 C167.267213,124.897351 168.640379,126.270517 168.640379,127.964404 C168.640379,129.658291 167.267213,131.031457 165.573326,131.031457 C163.87944,131.031457 162.506273,129.658291 162.506273,127.964404 C162.506273,126.270517 163.87944,124.897351 165.573326,124.897351 Z M152.982267,124.897351 C154.676153,124.897351 156.04932,126.270517 156.04932,127.964404 C156.04932,129.658291 154.676153,131.031457 152.982267,131.031457 C151.28838,131.031457 149.915214,129.658291 149.915214,127.964404 C149.915214,126.270517 151.28838,124.897351 152.982267,124.897351 Z M140.391207,124.897351 C142.085094,124.897351 143.45826,126.270517 143.45826,127.964404 C143.45826,129.658291 142.085094,131.031457 140.391207,131.031457 C138.697321,131.031457 137.324154,129.658291 137.324154,127.964404 C137.324154,126.270517 138.697321,124.897351 140.391207,124.897351 Z M127.800148,124.897351 C129.494034,124.897351 130.867201,126.270517 130.867201,127.964404 C130.867201,129.658291 129.494034,131.031457 127.800148,131.031457 C126.106261,131.031457 124.733095,129.658291 124.733095,127.964404 C124.733095,126.270517 126.106261,124.897351 127.800148,124.897351 Z M115.209088,124.897351 C116.902975,124.897351 118.276141,126.270517 118.276141,127.964404 C118.276141,129.658291 116.902975,131.031457 115.209088,131.031457 C113.515201,131.031457 112.142035,129.658291 112.142035,127.964404 C112.142035,126.270517 113.515201,124.897351 115.209088,124.897351 Z M102.618028,124.897351 C104.311915,124.897351 105.685081,126.270517 105.685081,127.964404 C105.685081,129.658291 104.311915,131.031457 102.618028,131.031457 C100.924142,131.031457 99.5509755,129.658291 99.5509755,127.964404 C99.5509755,126.270517 100.924142,124.897351 102.618028,124.897351 Z M90.0269689,124.897351 C91.7208554,124.897351 93.0940218,126.270517 93.0940218,127.964404 C93.0940218,129.658291 91.7208554,131.031457 90.0269689,131.031457 C88.3330823,131.031457 86.9599159,129.658291 86.9599159,127.964404 C86.9599159,126.270517 88.3330823,124.897351 90.0269689,124.897351 Z M77.4359093,124.897351 C79.1297958,124.897351 80.5029622,126.270517 80.5029622,127.964404 C80.5029622,129.658291 79.1297958,131.031457 77.4359093,131.031457 C75.7420227,131.031457 74.3688563,129.658291 74.3688563,127.964404 C74.3688563,126.270517 75.7420227,124.897351 77.4359093,124.897351 Z M64.8448497,124.897351 C66.5387362,124.897351 67.9119026,126.270517 67.9119026,127.964404 C67.9119026,129.658291 66.5387362,131.031457 64.8448497,131.031457 C63.1509631,131.031457 61.7777967,129.658291 61.7777967,127.964404 C61.7777967,126.270517 63.1509631,124.897351 64.8448497,124.897351 Z M52.25379,124.897351 C53.9476766,124.897351 55.320843,126.270517 55.320843,127.964404 C55.320843,129.658291 53.9476766,131.031457 52.25379,131.031457 C50.5599035,131.031457 49.1867371,129.658291 49.1867371,127.964404 C49.1867371,126.270517 50.5599035,124.897351 52.25379,124.897351 Z M39.6627304,124.897351 C41.356617,124.897351 42.7297834,126.270517 42.7297834,127.964404 C42.7297834,129.658291 41.356617,131.031457 39.6627304,131.031457 C37.9688439,131.031457 36.5956775,129.658291 36.5956775,127.964404 C36.5956775,126.270517 37.9688439,124.897351 39.6627304,124.897351 Z M27.0716708,124.897351 C28.7655574,124.897351 30.1387238,126.270517 30.1387238,127.964404 C30.1387238,129.658291 28.7655574,131.031457 27.0716708,131.031457 C25.3777843,131.031457 24.0046179,129.658291 24.0046179,127.964404 C24.0046179,126.270517 25.3777843,124.897351 27.0716708,124.897351 Z M178.164386,112.306291 C179.858273,112.306291 181.231439,113.679458 181.231439,115.373344 C181.231439,117.067231 179.858273,118.440397 178.164386,118.440397 C176.470499,118.440397 175.097333,117.067231 175.097333,115.373344 C175.097333,113.679458 176.470499,112.306291 178.164386,112.306291 Z M165.573326,112.306291 C167.267213,112.306291 168.640379,113.679458 168.640379,115.373344 C168.640379,117.067231 167.267213,118.440397 165.573326,118.440397 C163.87944,118.440397 162.506273,117.067231 162.506273,115.373344 C162.506273,113.679458 163.87944,112.306291 165.573326,112.306291 Z M152.982267,112.306291 C154.676153,112.306291 156.04932,113.679458 156.04932,115.373344 C156.04932,117.067231 154.676153,118.440397 152.982267,118.440397 C151.28838,118.440397 149.915214,117.067231 149.915214,115.373344 C149.915214,113.679458 151.28838,112.306291 152.982267,112.306291 Z M140.391207,112.306291 C142.085094,112.306291 143.45826,113.679458 143.45826,115.373344 C143.45826,117.067231 142.085094,118.440397 140.391207,118.440397 C138.697321,118.440397 137.324154,117.067231 137.324154,115.373344 C137.324154,113.679458 138.697321,112.306291 140.391207,112.306291 Z M127.800148,112.306291 C129.494034,112.306291 130.867201,113.679458 130.867201,115.373344 C130.867201,117.067231 129.494034,118.440397 127.800148,118.440397 C126.106261,118.440397 124.733095,117.067231 124.733095,115.373344 C124.733095,113.679458 126.106261,112.306291 127.800148,112.306291 Z M115.209088,112.306291 C116.902975,112.306291 118.276141,113.679458 118.276141,115.373344 C118.276141,117.067231 116.902975,118.440397 115.209088,118.440397 C113.515201,118.440397 112.142035,117.067231 112.142035,115.373344 C112.142035,113.679458 113.515201,112.306291 115.209088,112.306291 Z M102.618028,112.306291 C104.311915,112.306291 105.685081,113.679458 105.685081,115.373344 C105.685081,117.067231 104.311915,118.440397 102.618028,118.440397 C100.924142,118.440397 99.5509755,117.067231 99.5509755,115.373344 C99.5509755,113.679458 100.924142,112.306291 102.618028,112.306291 Z M90.0269689,112.306291 C91.7208554,112.306291 93.0940218,113.679458 93.0940218,115.373344 C93.0940218,117.067231 91.7208554,118.440397 90.0269689,118.440397 C88.3330823,118.440397 86.9599159,117.067231 86.9599159,115.373344 C86.9599159,113.679458 88.3330823,112.306291 90.0269689,112.306291 Z M77.4359093,112.306291 C79.1297958,112.306291 80.5029622,113.679458 80.5029622,115.373344 C80.5029622,117.067231 79.1297958,118.440397 77.4359093,118.440397 C75.7420227,118.440397 74.3688563,117.067231 74.3688563,115.373344 C74.3688563,113.679458 75.7420227,112.306291 77.4359093,112.306291 Z M64.8448497,112.306291 C66.5387362,112.306291 67.9119026,113.679458 67.9119026,115.373344 C67.9119026,117.067231 66.5387362,118.440397 64.8448497,118.440397 C63.1509631,118.440397 61.7777967,117.067231 61.7777967,115.373344 C61.7777967,113.679458 63.1509631,112.306291 64.8448497,112.306291 Z M52.25379,112.306291 C53.9476766,112.306291 55.320843,113.679458 55.320843,115.373344 C55.320843,117.067231 53.9476766,118.440397 52.25379,118.440397 C50.5599035,118.440397 49.1867371,117.067231 49.1867371,115.373344 C49.1867371,113.679458 50.5599035,112.306291 52.25379,112.306291 Z M39.6627304,112.306291 C41.356617,112.306291 42.7297834,113.679458 42.7297834,115.373344 C42.7297834,117.067231 41.356617,118.440397 39.6627304,118.440397 C37.9688439,118.440397 36.5956775,117.067231 36.5956775,115.373344 C36.5956775,113.679458 37.9688439,112.306291 39.6627304,112.306291 Z M27.0716708,112.306291 C28.7655574,112.306291 30.1387238,113.679458 30.1387238,115.373344 C30.1387238,117.067231 28.7655574,118.440397 27.0716708,118.440397 C25.3777843,118.440397 24.0046179,117.067231 24.0046179,115.373344 C24.0046179,113.679458 25.3777843,112.306291 27.0716708,112.306291 Z M178.164386,99.7152318 C179.858273,99.7152318 181.231439,101.088398 181.231439,102.782285 C181.231439,104.476171 179.858273,105.849338 178.164386,105.849338 C176.470499,105.849338 175.097333,104.476171 175.097333,102.782285 C175.097333,101.088398 176.470499,99.7152318 178.164386,99.7152318 Z M165.573326,99.7152318 C167.267213,99.7152318 168.640379,101.088398 168.640379,102.782285 C168.640379,104.476171 167.267213,105.849338 165.573326,105.849338 C163.87944,105.849338 162.506273,104.476171 162.506273,102.782285 C162.506273,101.088398 163.87944,99.7152318 165.573326,99.7152318 Z M152.982267,99.7152318 C154.676153,99.7152318 156.04932,101.088398 156.04932,102.782285 C156.04932,104.476171 154.676153,105.849338 152.982267,105.849338 C151.28838,105.849338 149.915214,104.476171 149.915214,102.782285 C149.915214,101.088398 151.28838,99.7152318 152.982267,99.7152318 Z M140.391207,99.7152318 C142.085094,99.7152318 143.45826,101.088398 143.45826,102.782285 C143.45826,104.476171 142.085094,105.849338 140.391207,105.849338 C138.697321,105.849338 137.324154,104.476171 137.324154,102.782285 C137.324154,101.088398 138.697321,99.7152318 140.391207,99.7152318 Z M127.800148,99.7152318 C129.494034,99.7152318 130.867201,101.088398 130.867201,102.782285 C130.867201,104.476171 129.494034,105.849338 127.800148,105.849338 C126.106261,105.849338 124.733095,104.476171 124.733095,102.782285 C124.733095,101.088398 126.106261,99.7152318 127.800148,99.7152318 Z M115.209088,99.7152318 C116.902975,99.7152318 118.276141,101.088398 118.276141,102.782285 C118.276141,104.476171 116.902975,105.849338 115.209088,105.849338 C113.515201,105.849338 112.142035,104.476171 112.142035,102.782285 C112.142035,101.088398 113.515201,99.7152318 115.209088,99.7152318 Z M102.618028,99.7152318 C104.311915,99.7152318 105.685081,101.088398 105.685081,102.782285 C105.685081,104.476171 104.311915,105.849338 102.618028,105.849338 C100.924142,105.849338 99.5509755,104.476171 99.5509755,102.782285 C99.5509755,101.088398 100.924142,99.7152318 102.618028,99.7152318 Z M90.0269689,99.7152318 C91.7208554,99.7152318 93.0940218,101.088398 93.0940218,102.782285 C93.0940218,104.476171 91.7208554,105.849338 90.0269689,105.849338 C88.3330823,105.849338 86.9599159,104.476171 86.9599159,102.782285 C86.9599159,101.088398 88.3330823,99.7152318 90.0269689,99.7152318 Z M77.4359093,99.7152318 C79.1297958,99.7152318 80.5029622,101.088398 80.5029622,102.782285 C80.5029622,104.476171 79.1297958,105.849338 77.4359093,105.849338 C75.7420227,105.849338 74.3688563,104.476171 74.3688563,102.782285 C74.3688563,101.088398 75.7420227,99.7152318 77.4359093,99.7152318 Z M64.8448497,99.7152318 C66.5387362,99.7152318 67.9119026,101.088398 67.9119026,102.782285 C67.9119026,104.476171 66.5387362,105.849338 64.8448497,105.849338 C63.1509631,105.849338 61.7777967,104.476171 61.7777967,102.782285 C61.7777967,101.088398 63.1509631,99.7152318 64.8448497,99.7152318 Z M52.25379,99.7152318 C53.9476766,99.7152318 55.320843,101.088398 55.320843,102.782285 C55.320843,104.476171 53.9476766,105.849338 52.25379,105.849338 C50.5599035,105.849338 49.1867371,104.476171 49.1867371,102.782285 C49.1867371,101.088398 50.5599035,99.7152318 52.25379,99.7152318 Z M39.6627304,99.7152318 C41.356617,99.7152318 42.7297834,101.088398 42.7297834,102.782285 C42.7297834,104.476171 41.356617,105.849338 39.6627304,105.849338 C37.9688439,105.849338 36.5956775,104.476171 36.5956775,102.782285 C36.5956775,101.088398 37.9688439,99.7152318 39.6627304,99.7152318 Z M27.0716708,99.7152318 C28.7655574,99.7152318 30.1387238,101.088398 30.1387238,102.782285 C30.1387238,104.476171 28.7655574,105.849338 27.0716708,105.849338 C25.3777843,105.849338 24.0046179,104.476171 24.0046179,102.782285 C24.0046179,101.088398 25.3777843,99.7152318 27.0716708,99.7152318 Z M178.164386,87.1241722 C179.858273,87.1241722 181.231439,88.4973386 181.231439,90.1912252 C181.231439,91.8851118 179.858273,93.2582781 178.164386,93.2582781 C176.470499,93.2582781 175.097333,91.8851118 175.097333,90.1912252 C175.097333,88.4973386 176.470499,87.1241722 178.164386,87.1241722 Z M165.573326,87.1241722 C167.267213,87.1241722 168.640379,88.4973386 168.640379,90.1912252 C168.640379,91.8851118 167.267213,93.2582781 165.573326,93.2582781 C163.87944,93.2582781 162.506273,91.8851118 162.506273,90.1912252 C162.506273,88.4973386 163.87944,87.1241722 165.573326,87.1241722 Z M152.982267,87.1241722 C154.676153,87.1241722 156.04932,88.4973386 156.04932,90.1912252 C156.04932,91.8851118 154.676153,93.2582781 152.982267,93.2582781 C151.28838,93.2582781 149.915214,91.8851118 149.915214,90.1912252 C149.915214,88.4973386 151.28838,87.1241722 152.982267,87.1241722 Z M140.391207,87.1241722 C142.085094,87.1241722 143.45826,88.4973386 143.45826,90.1912252 C143.45826,91.8851118 142.085094,93.2582781 140.391207,93.2582781 C138.697321,93.2582781 137.324154,91.8851118 137.324154,90.1912252 C137.324154,88.4973386 138.697321,87.1241722 140.391207,87.1241722 Z M127.800148,87.1241722 C129.494034,87.1241722 130.867201,88.4973386 130.867201,90.1912252 C130.867201,91.8851118 129.494034,93.2582781 127.800148,93.2582781 C126.106261,93.2582781 124.733095,91.8851118 124.733095,90.1912252 C124.733095,88.4973386 126.106261,87.1241722 127.800148,87.1241722 Z M115.209088,87.1241722 C116.902975,87.1241722 118.276141,88.4973386 118.276141,90.1912252 C118.276141,91.8851118 116.902975,93.2582781 115.209088,93.2582781 C113.515201,93.2582781 112.142035,91.8851118 112.142035,90.1912252 C112.142035,88.4973386 113.515201,87.1241722 115.209088,87.1241722 Z M102.618028,87.1241722 C104.311915,87.1241722 105.685081,88.4973386 105.685081,90.1912252 C105.685081,91.8851118 104.311915,93.2582781 102.618028,93.2582781 C100.924142,93.2582781 99.5509755,91.8851118 99.5509755,90.1912252 C99.5509755,88.4973386 100.924142,87.1241722 102.618028,87.1241722 Z M90.0269689,87.1241722 C91.7208554,87.1241722 93.0940218,88.4973386 93.0940218,90.1912252 C93.0940218,91.8851118 91.7208554,93.2582781 90.0269689,93.2582781 C88.3330823,93.2582781 86.9599159,91.8851118 86.9599159,90.1912252 C86.9599159,88.4973386 88.3330823,87.1241722 90.0269689,87.1241722 Z M77.4359093,87.1241722 C79.1297958,87.1241722 80.5029622,88.4973386 80.5029622,90.1912252 C80.5029622,91.8851118 79.1297958,93.2582781 77.4359093,93.2582781 C75.7420227,93.2582781 74.3688563,91.8851118 74.3688563,90.1912252 C74.3688563,88.4973386 75.7420227,87.1241722 77.4359093,87.1241722 Z M64.8448497,87.1241722 C66.5387362,87.1241722 67.9119026,88.4973386 67.9119026,90.1912252 C67.9119026,91.8851118 66.5387362,93.2582781 64.8448497,93.2582781 C63.1509631,93.2582781 61.7777967,91.8851118 61.7777967,90.1912252 C61.7777967,88.4973386 63.1509631,87.1241722 64.8448497,87.1241722 Z M52.25379,87.1241722 C53.9476766,87.1241722 55.320843,88.4973386 55.320843,90.1912252 C55.320843,91.8851118 53.9476766,93.2582781 52.25379,93.2582781 C50.5599035,93.2582781 49.1867371,91.8851118 49.1867371,90.1912252 C49.1867371,88.4973386 50.5599035,87.1241722 52.25379,87.1241722 Z M39.6627304,87.1241722 C41.356617,87.1241722 42.7297834,88.4973386 42.7297834,90.1912252 C42.7297834,91.8851118 41.356617,93.2582781 39.6627304,93.2582781 C37.9688439,93.2582781 36.5956775,91.8851118 36.5956775,90.1912252 C36.5956775,88.4973386 37.9688439,87.1241722 39.6627304,87.1241722 Z M27.0716708,87.1241722 C28.7655574,87.1241722 30.1387238,88.4973386 30.1387238,90.1912252 C30.1387238,91.8851118 28.7655574,93.2582781 27.0716708,93.2582781 C25.3777843,93.2582781 24.0046179,91.8851118 24.0046179,90.1912252 C24.0046179,88.4973386 25.3777843,87.1241722 27.0716708,87.1241722 Z M178.164386,74.5331126 C179.858273,74.5331126 181.231439,75.906279 181.231439,77.6001656 C181.231439,79.2940522 179.858273,80.6672185 178.164386,80.6672185 C176.470499,80.6672185 175.097333,79.2940522 175.097333,77.6001656 C175.097333,75.906279 176.470499,74.5331126 178.164386,74.5331126 Z M165.573326,74.5331126 C167.267213,74.5331126 168.640379,75.906279 168.640379,77.6001656 C168.640379,79.2940522 167.267213,80.6672185 165.573326,80.6672185 C163.87944,80.6672185 162.506273,79.2940522 162.506273,77.6001656 C162.506273,75.906279 163.87944,74.5331126 165.573326,74.5331126 Z M152.982267,74.5331126 C154.676153,74.5331126 156.04932,75.906279 156.04932,77.6001656 C156.04932,79.2940522 154.676153,80.6672185 152.982267,80.6672185 C151.28838,80.6672185 149.915214,79.2940522 149.915214,77.6001656 C149.915214,75.906279 151.28838,74.5331126 152.982267,74.5331126 Z M140.391207,74.5331126 C142.085094,74.5331126 143.45826,75.906279 143.45826,77.6001656 C143.45826,79.2940522 142.085094,80.6672185 140.391207,80.6672185 C138.697321,80.6672185 137.324154,79.2940522 137.324154,77.6001656 C137.324154,75.906279 138.697321,74.5331126 140.391207,74.5331126 Z M127.800148,74.5331126 C129.494034,74.5331126 130.867201,75.906279 130.867201,77.6001656 C130.867201,79.2940522 129.494034,80.6672185 127.800148,80.6672185 C126.106261,80.6672185 124.733095,79.2940522 124.733095,77.6001656 C124.733095,75.906279 126.106261,74.5331126 127.800148,74.5331126 Z M115.209088,74.5331126 C116.902975,74.5331126 118.276141,75.906279 118.276141,77.6001656 C118.276141,79.2940522 116.902975,80.6672185 115.209088,80.6672185 C113.515201,80.6672185 112.142035,79.2940522 112.142035,77.6001656 C112.142035,75.906279 113.515201,74.5331126 115.209088,74.5331126 Z M102.618028,74.5331126 C104.311915,74.5331126 105.685081,75.906279 105.685081,77.6001656 C105.685081,79.2940522 104.311915,80.6672185 102.618028,80.6672185 C100.924142,80.6672185 99.5509755,79.2940522 99.5509755,77.6001656 C99.5509755,75.906279 100.924142,74.5331126 102.618028,74.5331126 Z M90.0269689,74.5331126 C91.7208554,74.5331126 93.0940218,75.906279 93.0940218,77.6001656 C93.0940218,79.2940522 91.7208554,80.6672185 90.0269689,80.6672185 C88.3330823,80.6672185 86.9599159,79.2940522 86.9599159,77.6001656 C86.9599159,75.906279 88.3330823,74.5331126 90.0269689,74.5331126 Z M77.4359093,74.5331126 C79.1297958,74.5331126 80.5029622,75.906279 80.5029622,77.6001656 C80.5029622,79.2940522 79.1297958,80.6672185 77.4359093,80.6672185 C75.7420227,80.6672185 74.3688563,79.2940522 74.3688563,77.6001656 C74.3688563,75.906279 75.7420227,74.5331126 77.4359093,74.5331126 Z M64.8448497,74.5331126 C66.5387362,74.5331126 67.9119026,75.906279 67.9119026,77.6001656 C67.9119026,79.2940522 66.5387362,80.6672185 64.8448497,80.6672185 C63.1509631,80.6672185 61.7777967,79.2940522 61.7777967,77.6001656 C61.7777967,75.906279 63.1509631,74.5331126 64.8448497,74.5331126 Z M52.25379,74.5331126 C53.9476766,74.5331126 55.320843,75.906279 55.320843,77.6001656 C55.320843,79.2940522 53.9476766,80.6672185 52.25379,80.6672185 C50.5599035,80.6672185 49.1867371,79.2940522 49.1867371,77.6001656 C49.1867371,75.906279 50.5599035,74.5331126 52.25379,74.5331126 Z M39.6627304,74.5331126 C41.356617,74.5331126 42.7297834,75.906279 42.7297834,77.6001656 C42.7297834,79.2940522 41.356617,80.6672185 39.6627304,80.6672185 C37.9688439,80.6672185 36.5956775,79.2940522 36.5956775,77.6001656 C36.5956775,75.906279 37.9688439,74.5331126 39.6627304,74.5331126 Z M27.0716708,74.5331126 C28.7655574,74.5331126 30.1387238,75.906279 30.1387238,77.6001656 C30.1387238,79.2940522 28.7655574,80.6672185 27.0716708,80.6672185 C25.3777843,80.6672185 24.0046179,79.2940522 24.0046179,77.6001656 C24.0046179,75.906279 25.3777843,74.5331126 27.0716708,74.5331126 Z M178.164386,61.942053 C179.858273,61.942053 181.231439,63.3152194 181.231439,65.009106 C181.231439,66.7029925 179.858273,68.0761589 178.164386,68.0761589 C176.470499,68.0761589 175.097333,66.7029925 175.097333,65.009106 C175.097333,63.3152194 176.470499,61.942053 178.164386,61.942053 Z M165.573326,61.942053 C167.267213,61.942053 168.640379,63.3152194 168.640379,65.009106 C168.640379,66.7029925 167.267213,68.0761589 165.573326,68.0761589 C163.87944,68.0761589 162.506273,66.7029925 162.506273,65.009106 C162.506273,63.3152194 163.87944,61.942053 165.573326,61.942053 Z M152.982267,61.942053 C154.676153,61.942053 156.04932,63.3152194 156.04932,65.009106 C156.04932,66.7029925 154.676153,68.0761589 152.982267,68.0761589 C151.28838,68.0761589 149.915214,66.7029925 149.915214,65.009106 C149.915214,63.3152194 151.28838,61.942053 152.982267,61.942053 Z M140.391207,61.942053 C142.085094,61.942053 143.45826,63.3152194 143.45826,65.009106 C143.45826,66.7029925 142.085094,68.0761589 140.391207,68.0761589 C138.697321,68.0761589 137.324154,66.7029925 137.324154,65.009106 C137.324154,63.3152194 138.697321,61.942053 140.391207,61.942053 Z M127.800148,61.942053 C129.494034,61.942053 130.867201,63.3152194 130.867201,65.009106 C130.867201,66.7029925 129.494034,68.0761589 127.800148,68.0761589 C126.106261,68.0761589 124.733095,66.7029925 124.733095,65.009106 C124.733095,63.3152194 126.106261,61.942053 127.800148,61.942053 Z M115.209088,61.942053 C116.902975,61.942053 118.276141,63.3152194 118.276141,65.009106 C118.276141,66.7029925 116.902975,68.0761589 115.209088,68.0761589 C113.515201,68.0761589 112.142035,66.7029925 112.142035,65.009106 C112.142035,63.3152194 113.515201,61.942053 115.209088,61.942053 Z M102.618028,61.942053 C104.311915,61.942053 105.685081,63.3152194 105.685081,65.009106 C105.685081,66.7029925 104.311915,68.0761589 102.618028,68.0761589 C100.924142,68.0761589 99.5509755,66.7029925 99.5509755,65.009106 C99.5509755,63.3152194 100.924142,61.942053 102.618028,61.942053 Z M90.0269689,61.942053 C91.7208554,61.942053 93.0940218,63.3152194 93.0940218,65.009106 C93.0940218,66.7029925 91.7208554,68.0761589 90.0269689,68.0761589 C88.3330823,68.0761589 86.9599159,66.7029925 86.9599159,65.009106 C86.9599159,63.3152194 88.3330823,61.942053 90.0269689,61.942053 Z M77.4359093,61.942053 C79.1297958,61.942053 80.5029622,63.3152194 80.5029622,65.009106 C80.5029622,66.7029925 79.1297958,68.0761589 77.4359093,68.0761589 C75.7420227,68.0761589 74.3688563,66.7029925 74.3688563,65.009106 C74.3688563,63.3152194 75.7420227,61.942053 77.4359093,61.942053 Z M64.8448497,61.942053 C66.5387362,61.942053 67.9119026,63.3152194 67.9119026,65.009106 C67.9119026,66.7029925 66.5387362,68.0761589 64.8448497,68.0761589 C63.1509631,68.0761589 61.7777967,66.7029925 61.7777967,65.009106 C61.7777967,63.3152194 63.1509631,61.942053 64.8448497,61.942053 Z M52.25379,61.942053 C53.9476766,61.942053 55.320843,63.3152194 55.320843,65.009106 C55.320843,66.7029925 53.9476766,68.0761589 52.25379,68.0761589 C50.5599035,68.0761589 49.1867371,66.7029925 49.1867371,65.009106 C49.1867371,63.3152194 50.5599035,61.942053 52.25379,61.942053 Z M39.6627304,61.942053 C41.356617,61.942053 42.7297834,63.3152194 42.7297834,65.009106 C42.7297834,66.7029925 41.356617,68.0761589 39.6627304,68.0761589 C37.9688439,68.0761589 36.5956775,66.7029925 36.5956775,65.009106 C36.5956775,63.3152194 37.9688439,61.942053 39.6627304,61.942053 Z M27.0716708,61.942053 C28.7655574,61.942053 30.1387238,63.3152194 30.1387238,65.009106 C30.1387238,66.7029925 28.7655574,68.0761589 27.0716708,68.0761589 C25.3777843,68.0761589 24.0046179,66.7029925 24.0046179,65.009106 C24.0046179,63.3152194 25.3777843,61.942053 27.0716708,61.942053 Z M178.164386,49.3509934 C179.858273,49.3509934 181.231439,50.7241598 181.231439,52.4180464 C181.231439,54.1119329 179.858273,55.4850993 178.164386,55.4850993 C176.470499,55.4850993 175.097333,54.1119329 175.097333,52.4180464 C175.097333,50.7241598 176.470499,49.3509934 178.164386,49.3509934 Z M165.573326,49.3509934 C167.267213,49.3509934 168.640379,50.7241598 168.640379,52.4180464 C168.640379,54.1119329 167.267213,55.4850993 165.573326,55.4850993 C163.87944,55.4850993 162.506273,54.1119329 162.506273,52.4180464 C162.506273,50.7241598 163.87944,49.3509934 165.573326,49.3509934 Z M152.982267,49.3509934 C154.676153,49.3509934 156.04932,50.7241598 156.04932,52.4180464 C156.04932,54.1119329 154.676153,55.4850993 152.982267,55.4850993 C151.28838,55.4850993 149.915214,54.1119329 149.915214,52.4180464 C149.915214,50.7241598 151.28838,49.3509934 152.982267,49.3509934 Z M140.391207,49.3509934 C142.085094,49.3509934 143.45826,50.7241598 143.45826,52.4180464 C143.45826,54.1119329 142.085094,55.4850993 140.391207,55.4850993 C138.697321,55.4850993 137.324154,54.1119329 137.324154,52.4180464 C137.324154,50.7241598 138.697321,49.3509934 140.391207,49.3509934 Z M127.800148,49.3509934 C129.494034,49.3509934 130.867201,50.7241598 130.867201,52.4180464 C130.867201,54.1119329 129.494034,55.4850993 127.800148,55.4850993 C126.106261,55.4850993 124.733095,54.1119329 124.733095,52.4180464 C124.733095,50.7241598 126.106261,49.3509934 127.800148,49.3509934 Z M115.209088,49.3509934 C116.902975,49.3509934 118.276141,50.7241598 118.276141,52.4180464 C118.276141,54.1119329 116.902975,55.4850993 115.209088,55.4850993 C113.515201,55.4850993 112.142035,54.1119329 112.142035,52.4180464 C112.142035,50.7241598 113.515201,49.3509934 115.209088,49.3509934 Z M102.618028,49.3509934 C104.311915,49.3509934 105.685081,50.7241598 105.685081,52.4180464 C105.685081,54.1119329 104.311915,55.4850993 102.618028,55.4850993 C100.924142,55.4850993 99.5509755,54.1119329 99.5509755,52.4180464 C99.5509755,50.7241598 100.924142,49.3509934 102.618028,49.3509934 Z M90.0269689,49.3509934 C91.7208554,49.3509934 93.0940218,50.7241598 93.0940218,52.4180464 C93.0940218,54.1119329 91.7208554,55.4850993 90.0269689,55.4850993 C88.3330823,55.4850993 86.9599159,54.1119329 86.9599159,52.4180464 C86.9599159,50.7241598 88.3330823,49.3509934 90.0269689,49.3509934 Z M77.4359093,49.3509934 C79.1297958,49.3509934 80.5029622,50.7241598 80.5029622,52.4180464 C80.5029622,54.1119329 79.1297958,55.4850993 77.4359093,55.4850993 C75.7420227,55.4850993 74.3688563,54.1119329 74.3688563,52.4180464 C74.3688563,50.7241598 75.7420227,49.3509934 77.4359093,49.3509934 Z M64.8448497,49.3509934 C66.5387362,49.3509934 67.9119026,50.7241598 67.9119026,52.4180464 C67.9119026,54.1119329 66.5387362,55.4850993 64.8448497,55.4850993 C63.1509631,55.4850993 61.7777967,54.1119329 61.7777967,52.4180464 C61.7777967,50.7241598 63.1509631,49.3509934 64.8448497,49.3509934 Z M52.25379,49.3509934 C53.9476766,49.3509934 55.320843,50.7241598 55.320843,52.4180464 C55.320843,54.1119329 53.9476766,55.4850993 52.25379,55.4850993 C50.5599035,55.4850993 49.1867371,54.1119329 49.1867371,52.4180464 C49.1867371,50.7241598 50.5599035,49.3509934 52.25379,49.3509934 Z M39.6627304,49.3509934 C41.356617,49.3509934 42.7297834,50.7241598 42.7297834,52.4180464 C42.7297834,54.1119329 41.356617,55.4850993 39.6627304,55.4850993 C37.9688439,55.4850993 36.5956775,54.1119329 36.5956775,52.4180464 C36.5956775,50.7241598 37.9688439,49.3509934 39.6627304,49.3509934 Z M27.0716708,49.3509934 C28.7655574,49.3509934 30.1387238,50.7241598 30.1387238,52.4180464 C30.1387238,54.1119329 28.7655574,55.4850993 27.0716708,55.4850993 C25.3777843,55.4850993 24.0046179,54.1119329 24.0046179,52.4180464 C24.0046179,50.7241598 25.3777843,49.3509934 27.0716708,49.3509934 Z" id="形状结合" fill="#E8E8E8" transform="translate(102.618028, 146.850993) rotate(-270.000000) translate(-102.618028, -146.850993) "></path>
                <path d="M635.491081,688.795516 C636.809847,688.795516 637.878919,689.864588 637.878919,691.183354 C637.878919,692.502121 636.809847,693.571192 635.491081,693.571192 C634.172314,693.571192 633.103243,692.502121 633.103243,691.183354 C633.103243,689.864588 634.172314,688.795516 635.491081,688.795516 Z M625.688378,688.795516 C627.007145,688.795516 628.076216,689.864588 628.076216,691.183354 C628.076216,692.502121 627.007145,693.571192 625.688378,693.571192 C624.369612,693.571192 623.30054,692.502121 623.30054,691.183354 C623.30054,689.864588 624.369612,688.795516 625.688378,688.795516 Z M615.885675,688.795516 C617.204442,688.795516 618.273513,689.864588 618.273513,691.183354 C618.273513,692.502121 617.204442,693.571192 615.885675,693.571192 C614.566909,693.571192 613.497838,692.502121 613.497838,691.183354 C613.497838,689.864588 614.566909,688.795516 615.885675,688.795516 Z M606.082973,688.795516 C607.401739,688.795516 608.470811,689.864588 608.470811,691.183354 C608.470811,692.502121 607.401739,693.571192 606.082973,693.571192 C604.764206,693.571192 603.695135,692.502121 603.695135,691.183354 C603.695135,689.864588 604.764206,688.795516 606.082973,688.795516 Z M596.28027,688.795516 C597.599036,688.795516 598.668108,689.864588 598.668108,691.183354 C598.668108,692.502121 597.599036,693.571192 596.28027,693.571192 C594.961504,693.571192 593.892432,692.502121 593.892432,691.183354 C593.892432,689.864588 594.961504,688.795516 596.28027,688.795516 Z M586.477567,688.795516 C587.796334,688.795516 588.865405,689.864588 588.865405,691.183354 C588.865405,692.502121 587.796334,693.571192 586.477567,693.571192 C585.158801,693.571192 584.089729,692.502121 584.089729,691.183354 C584.089729,689.864588 585.158801,688.795516 586.477567,688.795516 Z M576.674865,688.795516 C577.993631,688.795516 579.062702,689.864588 579.062702,691.183354 C579.062702,692.502121 577.993631,693.571192 576.674865,693.571192 C575.356098,693.571192 574.287027,692.502121 574.287027,691.183354 C574.287027,689.864588 575.356098,688.795516 576.674865,688.795516 Z M566.872162,688.795516 C568.190928,688.795516 569.26,689.864588 569.26,691.183354 C569.26,692.502121 568.190928,693.571192 566.872162,693.571192 C565.553395,693.571192 564.484324,692.502121 564.484324,691.183354 C564.484324,689.864588 565.553395,688.795516 566.872162,688.795516 Z M557.069459,688.795516 C558.388226,688.795516 559.457297,689.864588 559.457297,691.183354 C559.457297,692.502121 558.388226,693.571192 557.069459,693.571192 C555.750693,693.571192 554.681621,692.502121 554.681621,691.183354 C554.681621,689.864588 555.750693,688.795516 557.069459,688.795516 Z M635.491081,678.992814 C636.809847,678.992814 637.878919,680.061885 637.878919,681.380652 C637.878919,682.699418 636.809847,683.768489 635.491081,683.768489 C634.172314,683.768489 633.103243,682.699418 633.103243,681.380652 C633.103243,680.061885 634.172314,678.992814 635.491081,678.992814 Z M625.688378,678.992814 C627.007145,678.992814 628.076216,680.061885 628.076216,681.380652 C628.076216,682.699418 627.007145,683.768489 625.688378,683.768489 C624.369612,683.768489 623.30054,682.699418 623.30054,681.380652 C623.30054,680.061885 624.369612,678.992814 625.688378,678.992814 Z M615.885675,678.992814 C617.204442,678.992814 618.273513,680.061885 618.273513,681.380652 C618.273513,682.699418 617.204442,683.768489 615.885675,683.768489 C614.566909,683.768489 613.497838,682.699418 613.497838,681.380652 C613.497838,680.061885 614.566909,678.992814 615.885675,678.992814 Z M606.082973,678.992814 C607.401739,678.992814 608.470811,680.061885 608.470811,681.380652 C608.470811,682.699418 607.401739,683.768489 606.082973,683.768489 C604.764206,683.768489 603.695135,682.699418 603.695135,681.380652 C603.695135,680.061885 604.764206,678.992814 606.082973,678.992814 Z M596.28027,678.992814 C597.599036,678.992814 598.668108,680.061885 598.668108,681.380652 C598.668108,682.699418 597.599036,683.768489 596.28027,683.768489 C594.961504,683.768489 593.892432,682.699418 593.892432,681.380652 C593.892432,680.061885 594.961504,678.992814 596.28027,678.992814 Z M586.477567,678.992814 C587.796334,678.992814 588.865405,680.061885 588.865405,681.380652 C588.865405,682.699418 587.796334,683.768489 586.477567,683.768489 C585.158801,683.768489 584.089729,682.699418 584.089729,681.380652 C584.089729,680.061885 585.158801,678.992814 586.477567,678.992814 Z M576.674865,678.992814 C577.993631,678.992814 579.062702,680.061885 579.062702,681.380652 C579.062702,682.699418 577.993631,683.768489 576.674865,683.768489 C575.356098,683.768489 574.287027,682.699418 574.287027,681.380652 C574.287027,680.061885 575.356098,678.992814 576.674865,678.992814 Z M566.872162,678.992814 C568.190928,678.992814 569.26,680.061885 569.26,681.380652 C569.26,682.699418 568.190928,683.768489 566.872162,683.768489 C565.553395,683.768489 564.484324,682.699418 564.484324,681.380652 C564.484324,680.061885 565.553395,678.992814 566.872162,678.992814 Z M557.069459,678.992814 C558.388226,678.992814 559.457297,680.061885 559.457297,681.380652 C559.457297,682.699418 558.388226,683.768489 557.069459,683.768489 C555.750693,683.768489 554.681621,682.699418 554.681621,681.380652 C554.681621,680.061885 555.750693,678.992814 557.069459,678.992814 Z M635.491081,669.190111 C636.809847,669.190111 637.878919,670.259182 637.878919,671.577949 C637.878919,672.896715 636.809847,673.965787 635.491081,673.965787 C634.172314,673.965787 633.103243,672.896715 633.103243,671.577949 C633.103243,670.259182 634.172314,669.190111 635.491081,669.190111 Z M625.688378,669.190111 C627.007145,669.190111 628.076216,670.259182 628.076216,671.577949 C628.076216,672.896715 627.007145,673.965787 625.688378,673.965787 C624.369612,673.965787 623.30054,672.896715 623.30054,671.577949 C623.30054,670.259182 624.369612,669.190111 625.688378,669.190111 Z M615.885675,669.190111 C617.204442,669.190111 618.273513,670.259182 618.273513,671.577949 C618.273513,672.896715 617.204442,673.965787 615.885675,673.965787 C614.566909,673.965787 613.497838,672.896715 613.497838,671.577949 C613.497838,670.259182 614.566909,669.190111 615.885675,669.190111 Z M606.082973,669.190111 C607.401739,669.190111 608.470811,670.259182 608.470811,671.577949 C608.470811,672.896715 607.401739,673.965787 606.082973,673.965787 C604.764206,673.965787 603.695135,672.896715 603.695135,671.577949 C603.695135,670.259182 604.764206,669.190111 606.082973,669.190111 Z M596.28027,669.190111 C597.599036,669.190111 598.668108,670.259182 598.668108,671.577949 C598.668108,672.896715 597.599036,673.965787 596.28027,673.965787 C594.961504,673.965787 593.892432,672.896715 593.892432,671.577949 C593.892432,670.259182 594.961504,669.190111 596.28027,669.190111 Z M586.477567,669.190111 C587.796334,669.190111 588.865405,670.259182 588.865405,671.577949 C588.865405,672.896715 587.796334,673.965787 586.477567,673.965787 C585.158801,673.965787 584.089729,672.896715 584.089729,671.577949 C584.089729,670.259182 585.158801,669.190111 586.477567,669.190111 Z M576.674865,669.190111 C577.993631,669.190111 579.062702,670.259182 579.062702,671.577949 C579.062702,672.896715 577.993631,673.965787 576.674865,673.965787 C575.356098,673.965787 574.287027,672.896715 574.287027,671.577949 C574.287027,670.259182 575.356098,669.190111 576.674865,669.190111 Z M566.872162,669.190111 C568.190928,669.190111 569.26,670.259182 569.26,671.577949 C569.26,672.896715 568.190928,673.965787 566.872162,673.965787 C565.553395,673.965787 564.484324,672.896715 564.484324,671.577949 C564.484324,670.259182 565.553395,669.190111 566.872162,669.190111 Z M557.069459,669.190111 C558.388226,669.190111 559.457297,670.259182 559.457297,671.577949 C559.457297,672.896715 558.388226,673.965787 557.069459,673.965787 C555.750693,673.965787 554.681621,672.896715 554.681621,671.577949 C554.681621,670.259182 555.750693,669.190111 557.069459,669.190111 Z M635.491081,659.387408 C636.809847,659.387408 637.878919,660.45648 637.878919,661.775246 C637.878919,663.094013 636.809847,664.163084 635.491081,664.163084 C634.172314,664.163084 633.103243,663.094013 633.103243,661.775246 C633.103243,660.45648 634.172314,659.387408 635.491081,659.387408 Z M625.688378,659.387408 C627.007145,659.387408 628.076216,660.45648 628.076216,661.775246 C628.076216,663.094013 627.007145,664.163084 625.688378,664.163084 C624.369612,664.163084 623.30054,663.094013 623.30054,661.775246 C623.30054,660.45648 624.369612,659.387408 625.688378,659.387408 Z M615.885675,659.387408 C617.204442,659.387408 618.273513,660.45648 618.273513,661.775246 C618.273513,663.094013 617.204442,664.163084 615.885675,664.163084 C614.566909,664.163084 613.497838,663.094013 613.497838,661.775246 C613.497838,660.45648 614.566909,659.387408 615.885675,659.387408 Z M606.082973,659.387408 C607.401739,659.387408 608.470811,660.45648 608.470811,661.775246 C608.470811,663.094013 607.401739,664.163084 606.082973,664.163084 C604.764206,664.163084 603.695135,663.094013 603.695135,661.775246 C603.695135,660.45648 604.764206,659.387408 606.082973,659.387408 Z M596.28027,659.387408 C597.599036,659.387408 598.668108,660.45648 598.668108,661.775246 C598.668108,663.094013 597.599036,664.163084 596.28027,664.163084 C594.961504,664.163084 593.892432,663.094013 593.892432,661.775246 C593.892432,660.45648 594.961504,659.387408 596.28027,659.387408 Z M586.477567,659.387408 C587.796334,659.387408 588.865405,660.45648 588.865405,661.775246 C588.865405,663.094013 587.796334,664.163084 586.477567,664.163084 C585.158801,664.163084 584.089729,663.094013 584.089729,661.775246 C584.089729,660.45648 585.158801,659.387408 586.477567,659.387408 Z M576.674865,659.387408 C577.993631,659.387408 579.062702,660.45648 579.062702,661.775246 C579.062702,663.094013 577.993631,664.163084 576.674865,664.163084 C575.356098,664.163084 574.287027,663.094013 574.287027,661.775246 C574.287027,660.45648 575.356098,659.387408 576.674865,659.387408 Z M566.872162,659.387408 C568.190928,659.387408 569.26,660.45648 569.26,661.775246 C569.26,663.094013 568.190928,664.163084 566.872162,664.163084 C565.553395,664.163084 564.484324,663.094013 564.484324,661.775246 C564.484324,660.45648 565.553395,659.387408 566.872162,659.387408 Z M557.069459,659.387408 C558.388226,659.387408 559.457297,660.45648 559.457297,661.775246 C559.457297,663.094013 558.388226,664.163084 557.069459,664.163084 C555.750693,664.163084 554.681621,663.094013 554.681621,661.775246 C554.681621,660.45648 555.750693,659.387408 557.069459,659.387408 Z M635.491081,649.584706 C636.809847,649.584706 637.878919,650.653777 637.878919,651.972543 C637.878919,653.29131 636.809847,654.360381 635.491081,654.360381 C634.172314,654.360381 633.103243,653.29131 633.103243,651.972543 C633.103243,650.653777 634.172314,649.584706 635.491081,649.584706 Z M625.688378,649.584706 C627.007145,649.584706 628.076216,650.653777 628.076216,651.972543 C628.076216,653.29131 627.007145,654.360381 625.688378,654.360381 C624.369612,654.360381 623.30054,653.29131 623.30054,651.972543 C623.30054,650.653777 624.369612,649.584706 625.688378,649.584706 Z M615.885675,649.584706 C617.204442,649.584706 618.273513,650.653777 618.273513,651.972543 C618.273513,653.29131 617.204442,654.360381 615.885675,654.360381 C614.566909,654.360381 613.497838,653.29131 613.497838,651.972543 C613.497838,650.653777 614.566909,649.584706 615.885675,649.584706 Z M606.082973,649.584706 C607.401739,649.584706 608.470811,650.653777 608.470811,651.972543 C608.470811,653.29131 607.401739,654.360381 606.082973,654.360381 C604.764206,654.360381 603.695135,653.29131 603.695135,651.972543 C603.695135,650.653777 604.764206,649.584706 606.082973,649.584706 Z M596.28027,649.584706 C597.599036,649.584706 598.668108,650.653777 598.668108,651.972543 C598.668108,653.29131 597.599036,654.360381 596.28027,654.360381 C594.961504,654.360381 593.892432,653.29131 593.892432,651.972543 C593.892432,650.653777 594.961504,649.584706 596.28027,649.584706 Z M586.477567,649.584706 C587.796334,649.584706 588.865405,650.653777 588.865405,651.972543 C588.865405,653.29131 587.796334,654.360381 586.477567,654.360381 C585.158801,654.360381 584.089729,653.29131 584.089729,651.972543 C584.089729,650.653777 585.158801,649.584706 586.477567,649.584706 Z M576.674865,649.584706 C577.993631,649.584706 579.062702,650.653777 579.062702,651.972543 C579.062702,653.29131 577.993631,654.360381 576.674865,654.360381 C575.356098,654.360381 574.287027,653.29131 574.287027,651.972543 C574.287027,650.653777 575.356098,649.584706 576.674865,649.584706 Z M566.872162,649.584706 C568.190928,649.584706 569.26,650.653777 569.26,651.972543 C569.26,653.29131 568.190928,654.360381 566.872162,654.360381 C565.553395,654.360381 564.484324,653.29131 564.484324,651.972543 C564.484324,650.653777 565.553395,649.584706 566.872162,649.584706 Z M557.069459,649.584706 C558.388226,649.584706 559.457297,650.653777 559.457297,651.972543 C559.457297,653.29131 558.388226,654.360381 557.069459,654.360381 C555.750693,654.360381 554.681621,653.29131 554.681621,651.972543 C554.681621,650.653777 555.750693,649.584706 557.069459,649.584706 Z M635.491081,639.782003 C636.809847,639.782003 637.878919,640.851074 637.878919,642.169841 C637.878919,643.488607 636.809847,644.557679 635.491081,644.557679 C634.172314,644.557679 633.103243,643.488607 633.103243,642.169841 C633.103243,640.851074 634.172314,639.782003 635.491081,639.782003 Z M625.688378,639.782003 C627.007145,639.782003 628.076216,640.851074 628.076216,642.169841 C628.076216,643.488607 627.007145,644.557679 625.688378,644.557679 C624.369612,644.557679 623.30054,643.488607 623.30054,642.169841 C623.30054,640.851074 624.369612,639.782003 625.688378,639.782003 Z M615.885675,639.782003 C617.204442,639.782003 618.273513,640.851074 618.273513,642.169841 C618.273513,643.488607 617.204442,644.557679 615.885675,644.557679 C614.566909,644.557679 613.497838,643.488607 613.497838,642.169841 C613.497838,640.851074 614.566909,639.782003 615.885675,639.782003 Z M606.082973,639.782003 C607.401739,639.782003 608.470811,640.851074 608.470811,642.169841 C608.470811,643.488607 607.401739,644.557679 606.082973,644.557679 C604.764206,644.557679 603.695135,643.488607 603.695135,642.169841 C603.695135,640.851074 604.764206,639.782003 606.082973,639.782003 Z M596.28027,639.782003 C597.599036,639.782003 598.668108,640.851074 598.668108,642.169841 C598.668108,643.488607 597.599036,644.557679 596.28027,644.557679 C594.961504,644.557679 593.892432,643.488607 593.892432,642.169841 C593.892432,640.851074 594.961504,639.782003 596.28027,639.782003 Z M586.477567,639.782003 C587.796334,639.782003 588.865405,640.851074 588.865405,642.169841 C588.865405,643.488607 587.796334,644.557679 586.477567,644.557679 C585.158801,644.557679 584.089729,643.488607 584.089729,642.169841 C584.089729,640.851074 585.158801,639.782003 586.477567,639.782003 Z M576.674865,639.782003 C577.993631,639.782003 579.062702,640.851074 579.062702,642.169841 C579.062702,643.488607 577.993631,644.557679 576.674865,644.557679 C575.356098,644.557679 574.287027,643.488607 574.287027,642.169841 C574.287027,640.851074 575.356098,639.782003 576.674865,639.782003 Z M566.872162,639.782003 C568.190928,639.782003 569.26,640.851074 569.26,642.169841 C569.26,643.488607 568.190928,644.557679 566.872162,644.557679 C565.553395,644.557679 564.484324,643.488607 564.484324,642.169841 C564.484324,640.851074 565.553395,639.782003 566.872162,639.782003 Z M557.069459,639.782003 C558.388226,639.782003 559.457297,640.851074 559.457297,642.169841 C559.457297,643.488607 558.388226,644.557679 557.069459,644.557679 C555.750693,644.557679 554.681621,643.488607 554.681621,642.169841 C554.681621,640.851074 555.750693,639.782003 557.069459,639.782003 Z M635.491081,629.9793 C636.809847,629.9793 637.878919,631.048372 637.878919,632.367138 C637.878919,633.685904 636.809847,634.754976 635.491081,634.754976 C634.172314,634.754976 633.103243,633.685904 633.103243,632.367138 C633.103243,631.048372 634.172314,629.9793 635.491081,629.9793 Z M625.688378,629.9793 C627.007145,629.9793 628.076216,631.048372 628.076216,632.367138 C628.076216,633.685904 627.007145,634.754976 625.688378,634.754976 C624.369612,634.754976 623.30054,633.685904 623.30054,632.367138 C623.30054,631.048372 624.369612,629.9793 625.688378,629.9793 Z M615.885675,629.9793 C617.204442,629.9793 618.273513,631.048372 618.273513,632.367138 C618.273513,633.685904 617.204442,634.754976 615.885675,634.754976 C614.566909,634.754976 613.497838,633.685904 613.497838,632.367138 C613.497838,631.048372 614.566909,629.9793 615.885675,629.9793 Z M606.082973,629.9793 C607.401739,629.9793 608.470811,631.048372 608.470811,632.367138 C608.470811,633.685904 607.401739,634.754976 606.082973,634.754976 C604.764206,634.754976 603.695135,633.685904 603.695135,632.367138 C603.695135,631.048372 604.764206,629.9793 606.082973,629.9793 Z M596.28027,629.9793 C597.599036,629.9793 598.668108,631.048372 598.668108,632.367138 C598.668108,633.685904 597.599036,634.754976 596.28027,634.754976 C594.961504,634.754976 593.892432,633.685904 593.892432,632.367138 C593.892432,631.048372 594.961504,629.9793 596.28027,629.9793 Z M586.477567,629.9793 C587.796334,629.9793 588.865405,631.048372 588.865405,632.367138 C588.865405,633.685904 587.796334,634.754976 586.477567,634.754976 C585.158801,634.754976 584.089729,633.685904 584.089729,632.367138 C584.089729,631.048372 585.158801,629.9793 586.477567,629.9793 Z M576.674865,629.9793 C577.993631,629.9793 579.062702,631.048372 579.062702,632.367138 C579.062702,633.685904 577.993631,634.754976 576.674865,634.754976 C575.356098,634.754976 574.287027,633.685904 574.287027,632.367138 C574.287027,631.048372 575.356098,629.9793 576.674865,629.9793 Z M566.872162,629.9793 C568.190928,629.9793 569.26,631.048372 569.26,632.367138 C569.26,633.685904 568.190928,634.754976 566.872162,634.754976 C565.553395,634.754976 564.484324,633.685904 564.484324,632.367138 C564.484324,631.048372 565.553395,629.9793 566.872162,629.9793 Z M557.069459,629.9793 C558.388226,629.9793 559.457297,631.048372 559.457297,632.367138 C559.457297,633.685904 558.388226,634.754976 557.069459,634.754976 C555.750693,634.754976 554.681621,633.685904 554.681621,632.367138 C554.681621,631.048372 555.750693,629.9793 557.069459,629.9793 Z M635.491081,620.176597 C636.809847,620.176597 637.878919,621.245669 637.878919,622.564435 C637.878919,623.883202 636.809847,624.952273 635.491081,624.952273 C634.172314,624.952273 633.103243,623.883202 633.103243,622.564435 C633.103243,621.245669 634.172314,620.176597 635.491081,620.176597 Z M625.688378,620.176597 C627.007145,620.176597 628.076216,621.245669 628.076216,622.564435 C628.076216,623.883202 627.007145,624.952273 625.688378,624.952273 C624.369612,624.952273 623.30054,623.883202 623.30054,622.564435 C623.30054,621.245669 624.369612,620.176597 625.688378,620.176597 Z M615.885675,620.176597 C617.204442,620.176597 618.273513,621.245669 618.273513,622.564435 C618.273513,623.883202 617.204442,624.952273 615.885675,624.952273 C614.566909,624.952273 613.497838,623.883202 613.497838,622.564435 C613.497838,621.245669 614.566909,620.176597 615.885675,620.176597 Z M606.082973,620.176597 C607.401739,620.176597 608.470811,621.245669 608.470811,622.564435 C608.470811,623.883202 607.401739,624.952273 606.082973,624.952273 C604.764206,624.952273 603.695135,623.883202 603.695135,622.564435 C603.695135,621.245669 604.764206,620.176597 606.082973,620.176597 Z M596.28027,620.176597 C597.599036,620.176597 598.668108,621.245669 598.668108,622.564435 C598.668108,623.883202 597.599036,624.952273 596.28027,624.952273 C594.961504,624.952273 593.892432,623.883202 593.892432,622.564435 C593.892432,621.245669 594.961504,620.176597 596.28027,620.176597 Z M586.477567,620.176597 C587.796334,620.176597 588.865405,621.245669 588.865405,622.564435 C588.865405,623.883202 587.796334,624.952273 586.477567,624.952273 C585.158801,624.952273 584.089729,623.883202 584.089729,622.564435 C584.089729,621.245669 585.158801,620.176597 586.477567,620.176597 Z M576.674865,620.176597 C577.993631,620.176597 579.062702,621.245669 579.062702,622.564435 C579.062702,623.883202 577.993631,624.952273 576.674865,624.952273 C575.356098,624.952273 574.287027,623.883202 574.287027,622.564435 C574.287027,621.245669 575.356098,620.176597 576.674865,620.176597 Z M566.872162,620.176597 C568.190928,620.176597 569.26,621.245669 569.26,622.564435 C569.26,623.883202 568.190928,624.952273 566.872162,624.952273 C565.553395,624.952273 564.484324,623.883202 564.484324,622.564435 C564.484324,621.245669 565.553395,620.176597 566.872162,620.176597 Z M557.069459,620.176597 C558.388226,620.176597 559.457297,621.245669 559.457297,622.564435 C559.457297,623.883202 558.388226,624.952273 557.069459,624.952273 C555.750693,624.952273 554.681621,623.883202 554.681621,622.564435 C554.681621,621.245669 555.750693,620.176597 557.069459,620.176597 Z M635.491081,610.373895 C636.809847,610.373895 637.878919,611.442966 637.878919,612.761733 C637.878919,614.080499 636.809847,615.14957 635.491081,615.14957 C634.172314,615.14957 633.103243,614.080499 633.103243,612.761733 C633.103243,611.442966 634.172314,610.373895 635.491081,610.373895 Z M625.688378,610.373895 C627.007145,610.373895 628.076216,611.442966 628.076216,612.761733 C628.076216,614.080499 627.007145,615.14957 625.688378,615.14957 C624.369612,615.14957 623.30054,614.080499 623.30054,612.761733 C623.30054,611.442966 624.369612,610.373895 625.688378,610.373895 Z M615.885675,610.373895 C617.204442,610.373895 618.273513,611.442966 618.273513,612.761733 C618.273513,614.080499 617.204442,615.14957 615.885675,615.14957 C614.566909,615.14957 613.497838,614.080499 613.497838,612.761733 C613.497838,611.442966 614.566909,610.373895 615.885675,610.373895 Z M606.082973,610.373895 C607.401739,610.373895 608.470811,611.442966 608.470811,612.761733 C608.470811,614.080499 607.401739,615.14957 606.082973,615.14957 C604.764206,615.14957 603.695135,614.080499 603.695135,612.761733 C603.695135,611.442966 604.764206,610.373895 606.082973,610.373895 Z M596.28027,610.373895 C597.599036,610.373895 598.668108,611.442966 598.668108,612.761733 C598.668108,614.080499 597.599036,615.14957 596.28027,615.14957 C594.961504,615.14957 593.892432,614.080499 593.892432,612.761733 C593.892432,611.442966 594.961504,610.373895 596.28027,610.373895 Z M586.477567,610.373895 C587.796334,610.373895 588.865405,611.442966 588.865405,612.761733 C588.865405,614.080499 587.796334,615.14957 586.477567,615.14957 C585.158801,615.14957 584.089729,614.080499 584.089729,612.761733 C584.089729,611.442966 585.158801,610.373895 586.477567,610.373895 Z M576.674865,610.373895 C577.993631,610.373895 579.062702,611.442966 579.062702,612.761733 C579.062702,614.080499 577.993631,615.14957 576.674865,615.14957 C575.356098,615.14957 574.287027,614.080499 574.287027,612.761733 C574.287027,611.442966 575.356098,610.373895 576.674865,610.373895 Z M566.872162,610.373895 C568.190928,610.373895 569.26,611.442966 569.26,612.761733 C569.26,614.080499 568.190928,615.14957 566.872162,615.14957 C565.553395,615.14957 564.484324,614.080499 564.484324,612.761733 C564.484324,611.442966 565.553395,610.373895 566.872162,610.373895 Z M557.069459,610.373895 C558.388226,610.373895 559.457297,611.442966 559.457297,612.761733 C559.457297,614.080499 558.388226,615.14957 557.069459,615.14957 C555.750693,615.14957 554.681621,614.080499 554.681621,612.761733 C554.681621,611.442966 555.750693,610.373895 557.069459,610.373895 Z M635.491081,600.571192 C636.809847,600.571192 637.878919,601.640263 637.878919,602.95903 C637.878919,604.277796 636.809847,605.346868 635.491081,605.346868 C634.172314,605.346868 633.103243,604.277796 633.103243,602.95903 C633.103243,601.640263 634.172314,600.571192 635.491081,600.571192 Z M625.688378,600.571192 C627.007145,600.571192 628.076216,601.640263 628.076216,602.95903 C628.076216,604.277796 627.007145,605.346868 625.688378,605.346868 C624.369612,605.346868 623.30054,604.277796 623.30054,602.95903 C623.30054,601.640263 624.369612,600.571192 625.688378,600.571192 Z M615.885675,600.571192 C617.204442,600.571192 618.273513,601.640263 618.273513,602.95903 C618.273513,604.277796 617.204442,605.346868 615.885675,605.346868 C614.566909,605.346868 613.497838,604.277796 613.497838,602.95903 C613.497838,601.640263 614.566909,600.571192 615.885675,600.571192 Z M606.082973,600.571192 C607.401739,600.571192 608.470811,601.640263 608.470811,602.95903 C608.470811,604.277796 607.401739,605.346868 606.082973,605.346868 C604.764206,605.346868 603.695135,604.277796 603.695135,602.95903 C603.695135,601.640263 604.764206,600.571192 606.082973,600.571192 Z M596.28027,600.571192 C597.599036,600.571192 598.668108,601.640263 598.668108,602.95903 C598.668108,604.277796 597.599036,605.346868 596.28027,605.346868 C594.961504,605.346868 593.892432,604.277796 593.892432,602.95903 C593.892432,601.640263 594.961504,600.571192 596.28027,600.571192 Z M586.477567,600.571192 C587.796334,600.571192 588.865405,601.640263 588.865405,602.95903 C588.865405,604.277796 587.796334,605.346868 586.477567,605.346868 C585.158801,605.346868 584.089729,604.277796 584.089729,602.95903 C584.089729,601.640263 585.158801,600.571192 586.477567,600.571192 Z M576.674865,600.571192 C577.993631,600.571192 579.062702,601.640263 579.062702,602.95903 C579.062702,604.277796 577.993631,605.346868 576.674865,605.346868 C575.356098,605.346868 574.287027,604.277796 574.287027,602.95903 C574.287027,601.640263 575.356098,600.571192 576.674865,600.571192 Z M566.872162,600.571192 C568.190928,600.571192 569.26,601.640263 569.26,602.95903 C569.26,604.277796 568.190928,605.346868 566.872162,605.346868 C565.553395,605.346868 564.484324,604.277796 564.484324,602.95903 C564.484324,601.640263 565.553395,600.571192 566.872162,600.571192 Z M557.069459,600.571192 C558.388226,600.571192 559.457297,601.640263 559.457297,602.95903 C559.457297,604.277796 558.388226,605.346868 557.069459,605.346868 C555.750693,605.346868 554.681621,604.277796 554.681621,602.95903 C554.681621,601.640263 555.750693,600.571192 557.069459,600.571192 Z" id="形状结合" fill="#E8E8E8"></path>
            </g>
        </g>
    </g>
</svg>